<svg width="69" height="69" viewBox="0 0 69 69" fill="none" xmlns="http://www.w3.org/2000/svg">
<path d="M67.8415 9.60781L34.7409 0.476615C34.5422 0.421858 34.3324 0.421858 34.1337 0.476615L1.03311 9.60781C0.792298 9.67426 0.579935 9.81788 0.428598 10.0166C0.277262 10.2154 0.195309 10.4583 0.195313 10.7081V19.8393C0.195316 20.142 0.315571 20.4323 0.529624 20.6464C0.743677 20.8604 1.03399 20.9807 1.33671 20.9807H3.61951V26.6877C3.62041 27.3955 3.8403 28.0857 4.24901 28.6637C4.65772 29.2416 5.23523 29.6789 5.90231 29.9156V57.7018C5.23523 57.9385 4.65771 58.3758 4.24901 58.9537C3.8403 59.5317 3.62041 60.2219 3.61951 60.9297V62.0711C2.71167 62.0721 1.84131 62.4332 1.19937 63.0751C0.557431 63.7171 0.196339 64.5874 0.195313 65.4953V67.7781C0.195316 68.0808 0.315571 68.3711 0.529624 68.5852C0.743677 68.7992 1.03399 68.9195 1.33671 68.9195H46.9927V66.6367H2.47811V65.4953C2.47846 65.1927 2.59882 64.9026 2.8128 64.6886C3.02678 64.4746 3.3169 64.3542 3.61951 64.3539H46.9927V62.0711H24.1647V60.9297C24.1638 60.2219 23.9439 59.5317 23.5352 58.9537C23.1265 58.3758 22.549 57.9385 21.8819 57.7018V29.9156C22.549 29.6789 23.1265 29.2416 23.5352 28.6636C23.9439 28.0857 24.1638 27.3955 24.1647 26.6877V25.5463H37.8615V23.2635H5.90231V20.9807H37.8615V18.6979H2.47811V11.5773L34.4373 2.76094L66.3965 11.5773V18.6979H64.1137C63.811 18.6979 63.5206 18.8182 63.3066 19.0322C63.0925 19.2463 62.9723 19.5366 62.9723 19.8393V26.6877C62.9718 26.8882 62.9188 27.085 62.8185 27.2586C62.7182 27.4323 62.5742 27.5765 62.4007 27.6771L63.5438 29.6531C64.0634 29.3515 64.4948 28.919 64.7951 28.3987C65.0953 27.8784 65.2539 27.2884 65.2551 26.6877V20.9807H67.5379C67.8406 20.9807 68.1309 20.8604 68.345 20.6464C68.559 20.4323 68.6793 20.142 68.6793 19.8393V10.7081C68.6793 10.4583 68.5973 10.2154 68.446 10.0166C68.2947 9.81788 68.0823 9.67426 67.8415 9.60781ZM5.90231 60.9297C5.90266 60.6271 6.02302 60.337 6.237 60.123C6.45098 59.909 6.7411 59.7886 7.04371 59.7883H8.38146C8.25136 60.1548 8.18495 60.5408 8.18511 60.9297V62.0711H5.90231V60.9297ZM10.4679 26.6877V25.5463H12.7507V26.6877C12.7505 27.0766 12.817 27.4626 12.9471 27.8291H11.6093C11.3067 27.8288 11.0166 27.7084 10.8026 27.4944C10.5886 27.2804 10.4683 26.9903 10.4679 26.6877ZM12.7507 62.0711H10.4679V60.9297C10.4683 60.6271 10.5886 60.337 10.8026 60.123C11.0166 59.909 11.3067 59.7886 11.6093 59.7883H12.9471C12.817 60.1548 12.7505 60.5408 12.7507 60.9297V62.0711ZM15.0335 30.1119V57.5055H12.7507V30.1119H15.0335ZM17.3163 30.1119H19.5991V57.5055H17.3163V30.1119ZM10.4679 30.1119V57.5055H8.18511V30.1119H10.4679ZM15.0335 62.0711V60.9297C15.0339 60.6271 15.1542 60.337 15.3682 60.123C15.5822 59.909 15.8723 59.7886 16.1749 59.7883H20.7405C21.0431 59.7886 21.3332 59.909 21.5472 60.123C21.7612 60.337 21.8816 60.6271 21.8819 60.9297V62.0711H15.0335ZM21.8819 26.6877C21.8816 26.9903 21.7612 27.2804 21.5472 27.4944C21.3332 27.7084 21.0431 27.8288 20.7405 27.8291H16.1749C15.8723 27.8288 15.5822 27.7084 15.3682 27.4944C15.1542 27.2804 15.0339 26.9903 15.0335 26.6877V25.5463H21.8819V26.6877ZM8.18511 25.5463V26.6877C8.18495 27.0766 8.25136 27.4626 8.38146 27.8291H7.04371C6.7411 27.8288 6.45098 27.7084 6.237 27.4944C6.02302 27.2804 5.90266 26.9903 5.90231 26.6877V25.5463H8.18511Z" fill="#DAAA02"/>
<path d="M34.4375 5.00195C33.3087 5.00195 32.2053 5.33666 31.2668 5.96376C30.3283 6.59085 29.5968 7.48216 29.1649 8.52498C28.7329 9.56779 28.6199 10.7153 28.8401 11.8223C29.0603 12.9294 29.6039 13.9463 30.402 14.7444C31.2002 15.5425 32.217 16.0861 33.3241 16.3063C34.4311 16.5265 35.5786 16.4135 36.6214 15.9815C37.6643 15.5496 38.5556 14.8181 39.1827 13.8796C39.8098 12.9411 40.1445 11.8377 40.1445 10.709C40.1427 9.19589 39.5409 7.74529 38.471 6.67539C37.4011 5.6055 35.9505 5.00367 34.4375 5.00195ZM34.4375 14.1331C33.7602 14.1331 33.0982 13.9323 32.5351 13.5561C31.972 13.1798 31.5331 12.645 31.2739 12.0193C31.0148 11.3936 30.9469 10.7052 31.0791 10.0409C31.2112 9.37669 31.5373 8.76656 32.0162 8.28768C32.4951 7.80879 33.1052 7.48267 33.7694 7.35055C34.4337 7.21842 35.1222 7.28623 35.7479 7.5454C36.3735 7.80457 36.9083 8.24346 37.2846 8.80657C37.6608 9.36967 37.8617 10.0317 37.8617 10.709C37.8606 11.6168 37.4995 12.4871 36.8576 13.1291C36.2157 13.771 35.3453 14.1321 34.4375 14.1331Z" fill="#DAAA02"/>
<path d="M46.9933 9.56836H42.4277V11.8512H46.9933V9.56836Z" fill="#DAAA02"/>
<path d="M26.4484 9.56836H21.8828V11.8512H26.4484V9.56836Z" fill="#DAAA02"/>
<path d="M26.4483 14.1328H4.76172V16.4156H26.4483V14.1328Z" fill="#DAAA02"/>
<path d="M64.1143 14.1328H42.4277V16.4156H64.1143V14.1328Z" fill="#DAAA02"/>
<path d="M56.1249 36.9609C56.1249 35.8322 55.7902 34.7288 55.1631 33.7903C54.536 32.8518 53.6447 32.1203 52.6019 31.6883C51.5591 31.2564 50.4116 31.1434 49.3046 31.3636C48.1975 31.5838 47.1806 32.1273 46.3825 32.9255C45.5843 33.7236 45.0408 34.7405 44.8206 35.8475C44.6004 36.9546 44.7134 38.1021 45.1454 39.1449C45.5773 40.1877 46.3088 41.079 47.2473 41.7061C48.1858 42.3332 49.2892 42.6679 50.4179 42.6679C51.931 42.6662 53.3816 42.0644 54.4515 40.9945C55.5214 39.9246 56.1232 38.474 56.1249 36.9609ZM46.9937 36.9609C46.9937 36.2837 47.1946 35.6216 47.5708 35.0585C47.9471 34.4954 48.4819 34.0565 49.1076 33.7974C49.7332 33.5382 50.4217 33.4704 51.086 33.6025C51.7502 33.7346 52.3603 34.0607 52.8392 34.5396C53.3181 35.0185 53.6442 35.6287 53.7763 36.2929C53.9085 36.9571 53.8407 37.6456 53.5815 38.2713C53.3223 38.897 52.8834 39.4318 52.3203 39.808C51.7572 40.1843 51.0952 40.3851 50.4179 40.3851C49.5101 40.3841 48.6397 40.023 47.9978 39.381C47.3559 38.7391 46.9948 37.8687 46.9937 36.9609Z" fill="#DAAA02"/>
<path d="M50.3622 56.521L53.1379 62.0724H50.4191C50.1164 62.0724 49.826 62.1927 49.612 62.4067C49.3979 62.6208 49.2777 62.9111 49.2777 63.2138V68.9208H51.5605V64.3552H65.2573V68.9208H67.5401V63.2138C67.5401 62.9111 67.4198 62.6208 67.2058 62.4067C66.9917 62.1927 66.7014 62.0724 66.3987 62.0724H65.5082L68.3308 47.9592C68.5931 46.6591 68.4434 45.3096 67.9028 44.0985L65.4082 38.4858C64.9831 37.531 64.3313 36.6944 63.5093 36.0489C62.6873 35.4033 61.7201 34.9683 60.6917 34.7817V19.8406C60.6917 19.5379 60.5714 19.2476 60.3574 19.0335C60.1433 18.8195 59.853 18.6992 59.5503 18.6992H41.2879C40.9852 18.6992 40.6948 18.8195 40.4808 19.0335C40.2667 19.2476 40.1465 19.5379 40.1465 19.8406V54.0826C40.1465 54.3853 40.2667 54.6756 40.4808 54.8897C40.6948 55.1037 40.9852 55.224 41.2879 55.224H49.8232C49.9729 55.6682 50.153 56.1016 50.3622 56.521ZM60.6917 54.0826V37.1227C61.2706 37.2896 61.806 37.581 62.2604 37.9766C62.7148 38.3722 63.0772 38.8624 63.3221 39.4129L65.8167 45.0256C66.1649 45.8054 66.2612 46.6744 66.0923 47.5115L63.1801 62.0724H55.6901L52.404 55.5002C51.8507 54.3902 51.5619 53.1672 51.5605 51.927V48.3756C51.5605 48.0729 51.6807 47.7826 51.8948 47.5685C52.1088 47.3545 52.3992 47.2342 52.7019 47.2342C53.0046 47.2342 53.2949 47.3545 53.509 47.5685C53.723 47.7826 53.8433 48.0729 53.8433 48.3756V51.7998C53.8443 52.7076 54.2054 53.578 54.8474 54.2199C55.4893 54.8619 56.3596 55.223 57.2675 55.224H59.5503C59.853 55.224 60.1433 55.1037 60.3574 54.8897C60.5714 54.6756 60.6917 54.3853 60.6917 54.0826ZM56.1261 51.7998V49.5174C56.8015 49.0104 57.5813 48.6601 58.4089 48.4919V52.9412H57.2675C56.9649 52.9409 56.6747 52.8205 56.4608 52.6065C56.2468 52.3925 56.1264 52.1024 56.1261 51.7998ZM58.4089 20.982V25.4328C57.3133 25.2069 56.3078 24.6651 55.5168 23.8741C54.7258 23.0831 54.1839 22.0776 53.9581 20.982H58.4089ZM42.4293 20.982H46.88C46.6542 22.0776 46.1123 23.0831 45.3213 23.8741C44.5303 24.6651 43.5249 25.2069 42.4293 25.4328V20.982ZM42.4293 52.9412V48.4904C43.5249 48.7163 44.5303 49.2582 45.3213 50.0492C46.1123 50.8402 46.6542 51.8456 46.88 52.9412H42.4293ZM49.1948 52.9412C48.9458 51.2354 48.1529 49.6555 46.9339 48.4366C45.7149 47.2176 44.1351 46.4247 42.4293 46.1756V27.7476C44.1351 27.4986 45.7149 26.7056 46.9339 25.4866C48.1529 24.2677 48.9458 22.6878 49.1948 20.982H51.6433C51.8923 22.6878 52.6853 24.2677 53.9043 25.4866C55.1232 26.7056 56.7031 27.4986 58.4089 27.7476V46.1753C57.5115 46.3046 56.6428 46.5861 55.8401 47.0077C55.5259 46.2864 54.9728 45.6953 54.2739 45.3339C53.575 44.9725 52.773 44.8629 52.0027 45.0234C51.2325 45.184 50.541 45.6049 50.0447 46.2155C49.5484 46.826 49.2776 47.5888 49.2777 48.3756V51.927C49.2777 52.2656 49.2958 52.6041 49.3296 52.9412H49.1948Z" fill="#DAAA02"/>
</svg>
