<svg width="61" height="60" viewBox="0 0 61 60" fill="none" xmlns="http://www.w3.org/2000/svg">
<path d="M59.33 25.4942L29.0196 55.8045C27.6593 57.1648 25.4538 57.1648 24.0936 55.8045L4.93039 36.6414C3.57008 35.2811 3.57008 33.0756 4.93039 31.7154L35.2407 1.405C36.601 0.0446881 38.8065 0.0446881 40.1667 1.405L51.3427 12.581L53.0864 16.6468L56.5678 17.8062L59.3299 20.5682C60.6902 21.9284 60.6902 24.1339 59.33 25.4942Z" fill="#D3E0E4"/>
<path d="M16.1016 47.8145L51.3326 12.5834L56.5569 17.8077L21.3259 53.0388L16.1016 47.8145Z" fill="#002C3B"/>
<path d="M4.3836 25.7695C2.45982 25.7695 0.900391 27.329 0.900391 29.2527V56.3536C0.900391 58.2774 2.45982 59.8368 4.3836 59.8368H25.8163L29.2995 42.8033L25.8163 25.7696H4.3836V25.7695Z" fill="#FFE477"/>
<path d="M47.251 25.7676H25.8184V59.8349H47.251C49.1748 59.8349 50.7342 58.2755 50.7342 56.3517V29.2508C50.7342 27.327 49.1748 25.7676 47.251 25.7676Z" fill="#FFCD00"/>
<path d="M6.43945 48.8027H13.314V52.2859H6.43945V48.8027Z" fill="#FDFAE5"/>
<path d="M17.0645 48.8027H23.939V52.2859H17.0645V48.8027Z" fill="#FDFAE5"/>
<path d="M27.6914 48.8027H34.5659V52.2859H27.6914V48.8027Z" fill="#FAF1B4"/>
<path d="M38.3145 48.8047H45.189V52.2879H38.3145V48.8047Z" fill="#FAF1B4"/>
<path d="M6.54883 35.0527H17.0674V42.4421H6.54883V35.0527Z" fill="#FDFAE5"/>
</svg>
