<svg width="36" height="36" viewBox="0 0 36 36" fill="none" xmlns="http://www.w3.org/2000/svg">
<path d="M28.7648 32.9541L26.4375 33.6826L24.4266 34.3119H13.8649L11.8125 27.7545L5.0625 6.18688L11.8125 4.07398L19.0195 1.81836L26.4375 25.5186L28.7648 32.9541Z" fill="#379A6B"/>
<path d="M23.831 30.3732L24.335 31.9836L17.8932 33.9998L17.3892 32.3893L15.7787 32.8934L8.38599 9.27323L9.99642 8.76923L9.49242 7.15872L15.9342 5.14258L16.4383 6.75302L18.0488 6.24895L25.4415 29.8691L23.831 30.3732Z" fill="#44C086"/>
<path d="M11.8125 1.6875H26.4375V34.3125H11.8125V1.6875Z" fill="#3BA673"/>
<path d="M22.5 30.375V32.0625H15.75V30.375H14.0625V5.625H15.75V3.9375H22.5V5.625H24.1875V30.375H22.5Z" fill="#44C086"/>
<path d="M19.125 20.8125C20.6783 20.8125 21.9375 19.5533 21.9375 18C21.9375 16.4467 20.6783 15.1875 19.125 15.1875C17.5717 15.1875 16.3125 16.4467 16.3125 18C16.3125 19.5533 17.5717 20.8125 19.125 20.8125Z" fill="#3BA673"/>
<path d="M30.9372 20.8125V34.3125H26.9997C25.5079 34.3125 24.0771 33.7199 23.0222 32.665C21.9673 31.6101 21.3747 30.1793 21.3747 28.6875H21.386L17.7367 23.2871C17.4027 22.7927 17.2787 22.1858 17.3921 21.5999C17.5055 21.0141 17.847 20.4972 18.3414 20.1632C18.8359 19.8291 19.4428 19.7051 20.0287 19.8185C20.6145 19.9319 21.1313 20.2734 21.4654 20.7679L24.7497 25.3125H26.4372V11.8125L30.6725 19.7537C30.8463 20.0795 30.9372 20.4432 30.9372 20.8125Z" fill="#F5CBAA"/>
</svg>
