<svg width="27" height="27" viewBox="0 0 27 27" fill="none" xmlns="http://www.w3.org/2000/svg">
<path d="M13.5 27C20.9558 27 27 20.9558 27 13.5C27 6.04416 20.9558 0 13.5 0C6.04416 0 0 6.04416 0 13.5C0 20.9558 6.04416 27 13.5 27Z" fill="#8AC9FE"/>
<path d="M20.1982 1.77734C21.5956 3.90349 22.4093 6.4474 22.4093 9.18178C22.4093 16.6376 16.3652 22.6818 8.90931 22.6818C6.47161 22.6818 4.18494 22.0354 2.21094 20.9051C4.6238 24.5763 8.77837 27.0007 13.4998 27.0007C20.9557 27.0007 26.9998 20.9565 26.9998 13.5007C26.9998 8.48252 24.2617 4.10414 20.1982 1.77734Z" fill="#60B7FF"/>
<path d="M13.4999 25.2547C19.9922 25.2547 25.2552 19.9917 25.2552 13.4994C25.2552 7.00716 19.9922 1.74414 13.4999 1.74414C7.00765 1.74414 1.74463 7.00716 1.74463 13.4994C1.74463 19.9917 7.00765 25.2547 13.4999 25.2547Z" fill="#EAF6FF"/>
<path d="M13.5001 20.0786C13.356 20.0786 13.2119 20.0423 13.0819 19.9698L7.95836 17.1096C7.68683 16.9581 7.51855 16.6714 7.51855 16.3604V10.6401C7.51855 10.3291 7.68683 10.0424 7.95836 9.89087L13.0819 7.03072C13.3419 6.88559 13.6584 6.88559 13.9183 7.03072L19.0419 9.89087C19.3134 10.0424 19.4817 10.3291 19.4817 10.6401V16.3604C19.4817 16.6714 19.3134 16.9581 19.0419 17.1096L13.9183 19.9698C13.7884 20.0423 13.6442 20.0786 13.5001 20.0786ZM9.46076 15.9829L13.2851 18.1178C13.4187 18.1924 13.5815 18.1924 13.7151 18.1178L17.5395 15.9829C17.679 15.905 17.7655 15.7576 17.7655 15.5978V11.4027C17.7655 11.2428 17.679 11.0954 17.5395 11.0175L13.7151 8.88264C13.5815 8.80802 13.4187 8.80802 13.2851 8.88264L9.46076 11.0175C9.32117 11.0955 9.23469 11.2428 9.23469 11.4027V15.5978C9.23464 15.7576 9.32117 15.905 9.46076 15.9829Z" fill="#60B7FF"/>
<path d="M21.8072 5.18359C22.1984 6.447 22.4093 7.78967 22.4093 9.18165C22.4093 16.6375 16.3651 22.6817 8.90928 22.6817C7.8046 22.6817 6.73125 22.548 5.70361 22.2977C7.7785 24.1379 10.5084 25.2559 13.4999 25.2559C19.9922 25.2559 25.2551 19.9928 25.2551 13.5006C25.2551 10.252 23.9373 7.31121 21.8072 5.18359Z" fill="#D8ECFE"/>
</svg>
