<svg width="27" height="27" viewBox="0 0 27 27" fill="none" xmlns="http://www.w3.org/2000/svg">
<path d="M8.4375 17.7188V19.4062C8.4375 21.7371 12.593 23.625 17.7188 23.625C22.8445 23.625 27 21.7371 27 19.4062V17.7188H8.4375Z" fill="#FFC107"/>
<path d="M17.7188 21.9375C22.8446 21.9375 27 20.0487 27 17.7188C27 15.3888 22.8446 13.5 17.7188 13.5C12.5929 13.5 8.4375 15.3888 8.4375 17.7188C8.4375 20.0487 12.5929 21.9375 17.7188 21.9375Z" fill="#FFD54F"/>
<path d="M23.625 20.9725V22.66C24.2684 22.4174 24.8326 22.1379 25.3125 21.8268V20.25H25.1279C24.6902 20.5189 24.1893 20.7615 23.625 20.9725Z" fill="#FFE082"/>
<path d="M20.25 21.7732V23.4607C20.8406 23.3869 21.4049 23.2814 21.9375 23.1602V21.4727C21.4049 21.5992 20.8406 21.6994 20.25 21.7732Z" fill="#FFE082"/>
<path d="M8.4375 14.3438V16.0312C8.4375 18.3621 12.593 20.25 17.7188 20.25C22.8445 20.25 27 18.3621 27 16.0312V14.3438H8.4375Z" fill="#FFC107"/>
<path d="M17.7188 18.5625C22.8446 18.5625 27 16.6737 27 14.3438C27 12.0138 22.8446 10.125 17.7188 10.125C12.5929 10.125 8.4375 12.0138 8.4375 14.3438C8.4375 16.6737 12.5929 18.5625 17.7188 18.5625Z" fill="#FFD54F"/>
<path d="M23.625 17.5975V19.285C24.2684 19.0424 24.8326 18.7629 25.3125 18.4518V16.875H25.1279C24.6902 17.1439 24.1893 17.3865 23.625 17.5975Z" fill="#FFE082"/>
<path d="M20.25 18.3982V20.0857C20.8406 20.0119 21.4049 19.9064 21.9375 19.7852V18.0977C21.4049 18.2242 20.8406 18.3244 20.25 18.3982Z" fill="#FFE082"/>
<path d="M8.4375 10.9688V12.6562C8.4375 14.9871 12.593 16.875 17.7188 16.875C22.8445 16.875 27 14.9871 27 12.6562V10.9688H8.4375Z" fill="#FFC107"/>
<path d="M17.7188 15.1875C22.8446 15.1875 27 13.2987 27 10.9688C27 8.6388 22.8446 6.75 17.7188 6.75C12.5929 6.75 8.4375 8.6388 8.4375 10.9688C8.4375 13.2987 12.5929 15.1875 17.7188 15.1875Z" fill="#FFD54F"/>
<path d="M23.625 14.2225V15.91C24.2684 15.6674 24.8326 15.3879 25.3125 15.0768V13.5H25.1279C24.6902 13.7689 24.1893 14.0115 23.625 14.2225Z" fill="#FFE082"/>
<path d="M20.25 15.0232V16.7107C20.8406 16.6369 21.4049 16.5314 21.9375 16.4102V14.7227C21.4049 14.8492 20.8406 14.9494 20.25 15.0232Z" fill="#FFE082"/>
<path d="M8.4375 7.59375V9.28125C8.4375 11.6121 12.593 13.5 17.7188 13.5C22.8445 13.5 27 11.6121 27 9.28125V7.59375H8.4375Z" fill="#FFC107"/>
<path d="M17.7188 11.8125C22.8446 11.8125 27 9.9237 27 7.59375C27 5.2638 22.8446 3.375 17.7188 3.375C12.5929 3.375 8.4375 5.2638 8.4375 7.59375C8.4375 9.9237 12.5929 11.8125 17.7188 11.8125Z" fill="#FFD54F"/>
<path d="M23.625 10.8475V12.535C24.2684 12.2924 24.8326 12.0129 25.3125 11.7018V10.125H25.1279C24.6902 10.3939 24.1893 10.6365 23.625 10.8475Z" fill="#FFE082"/>
<path d="M20.25 11.6482V13.3357C20.8406 13.2619 21.4049 13.1564 21.9375 13.0352V11.3477C21.4049 11.4742 20.8406 11.5744 20.25 11.6482Z" fill="#FFE082"/>
<path d="M8.4375 4.21875V5.90625C8.4375 8.23711 12.593 10.125 17.7188 10.125C22.8445 10.125 27 8.23711 27 5.90625V4.21875H8.4375Z" fill="#FFC107"/>
<path d="M17.7188 8.4375C22.8446 8.4375 27 6.5487 27 4.21875C27 1.8888 22.8446 0 17.7188 0C12.5929 0 8.4375 1.8888 8.4375 4.21875C8.4375 6.5487 12.5929 8.4375 17.7188 8.4375Z" fill="#FFD54F"/>
<path d="M23.625 7.47246V9.15996C24.2684 8.91738 24.8326 8.63789 25.3125 8.32676V6.75H25.1279C24.6902 7.01895 24.1893 7.26152 23.625 7.47246Z" fill="#FFE082"/>
<path d="M20.25 8.27324V9.96074C20.8406 9.88691 21.4049 9.78144 21.9375 9.66015V7.97266C21.4049 8.09922 20.8406 8.19941 20.25 8.27324Z" fill="#FFE082"/>
<path d="M9.28125 11.8133C9.00176 11.8133 8.64316 11.8027 8.3584 11.8133V12.6412C8.3584 12.9312 8.39531 13.2266 8.5166 13.5008C8.39531 13.775 8.43223 14.0545 8.43223 14.3445V16.032C8.43223 16.3221 8.49551 16.6016 8.6168 16.8758C8.49551 17.15 8.43223 17.4295 8.43223 17.7195V19.407C8.43223 21.7379 12.5877 23.7787 17.7135 23.7787C18.5678 23.7787 19.3482 23.7207 20.134 23.6258C20.1814 23.3727 20.2447 22.9771 20.2447 22.782V17.7195C20.25 13.8436 14.734 11.8133 9.28125 11.8133Z" fill="white"/>
<path d="M0 21.0938V22.7812C0 25.1121 4.15547 27 9.28125 27C14.407 27 18.5625 25.1121 18.5625 22.7812V21.0938H0Z" fill="#FFC107"/>
<path d="M9.28125 25.3125C14.4071 25.3125 18.5625 23.4237 18.5625 21.0938C18.5625 18.7638 14.4071 16.875 9.28125 16.875C4.15536 16.875 0 18.7638 0 21.0938C0 23.4237 4.15536 25.3125 9.28125 25.3125Z" fill="#FFD54F"/>
<path d="M15.1875 24.3475V26.035C15.8309 25.7924 16.3951 25.5129 16.875 25.2018V23.625H16.6904C16.2527 23.8939 15.7518 24.1365 15.1875 24.3475Z" fill="#FFE082"/>
<path d="M11.8125 25.1482V26.8357C12.4031 26.7619 12.9674 26.6564 13.5 26.5352V24.8477C12.9674 24.9742 12.4031 25.0744 11.8125 25.1482Z" fill="#FFE082"/>
<path d="M0 17.7188V19.4062C0 21.7371 4.15547 23.625 9.28125 23.625C14.407 23.625 18.5625 21.7371 18.5625 19.4062V17.7188H0Z" fill="#FFC107"/>
<path d="M9.28125 21.9375C14.4071 21.9375 18.5625 20.0487 18.5625 17.7188C18.5625 15.3888 14.4071 13.5 9.28125 13.5C4.15536 13.5 0 15.3888 0 17.7188C0 20.0487 4.15536 21.9375 9.28125 21.9375Z" fill="#FFD54F"/>
<path d="M15.1875 20.9725V22.66C15.8309 22.4174 16.3951 22.1379 16.875 21.8268V20.25H16.6904C16.2527 20.5189 15.7518 20.7615 15.1875 20.9725Z" fill="#FFE082"/>
<path d="M11.8125 21.7732V23.4607C12.4031 23.3869 12.9674 23.2814 13.5 23.1602V21.4727C12.9674 21.5992 12.4031 21.6994 11.8125 21.7732Z" fill="#FFE082"/>
</svg>
