<svg width="17" height="17" viewBox="0 0 17 17" fill="none" xmlns="http://www.w3.org/2000/svg">
<path d="M17 2.65625L17 6.50782C17 6.87458 16.7027 7.17188 16.3359 7.17188C15.9692 7.17188 15.6719 6.87458 15.6719 6.50782L15.6719 2.65625C15.6719 1.92392 15.0761 1.32813 14.3437 1.32813L2.65625 1.32813C1.92392 1.32813 1.32812 1.92392 1.32812 2.65625L1.32812 9.82813C1.32812 10.5605 1.92392 11.1563 2.65625 11.1563L5.84375 11.1563C6.21051 11.1563 6.50781 11.4536 6.50781 11.8203C6.50781 12.1871 6.21051 12.4844 5.84375 12.4844L2.65625 12.4844C1.19159 12.4844 -1.97449e-06 11.2928 -1.7184e-06 9.82813L-4.64434e-07 2.65625C-2.08345e-07 1.19159 1.19159 2.08345e-07 2.65625 4.64433e-07L14.3437 2.50794e-06C15.8084 2.76403e-06 17 1.1916 17 2.65625ZM16.3359 9.16407C15.9692 9.16407 15.6719 9.46137 15.6719 9.82813C15.6719 10.5605 15.0761 11.1563 14.3437 11.1563L11.1562 11.1563C10.7895 11.1563 10.4922 11.4536 10.4922 11.8203C10.4922 12.1871 10.7895 12.4844 11.1562 12.4844L14.3437 12.4844C15.8084 12.4844 17 11.2928 17 9.82813C17 9.46137 16.7027 9.16407 16.3359 9.16407ZM14.4434 6.20899C14.4434 5.84223 14.1461 5.54492 13.7793 5.54492C13.4125 5.54492 13.1152 5.84223 13.1152 6.20899C13.1152 6.57575 13.4125 6.87305 13.7793 6.87305C14.1461 6.87305 14.4434 6.57575 14.4434 6.20899ZM2.55664 6.20899C2.55664 6.57575 2.85394 6.87305 3.2207 6.87305C3.58746 6.87305 3.88476 6.57575 3.88476 6.20899C3.88476 5.84222 3.58746 5.54492 3.2207 5.54492C2.85394 5.54492 2.55664 5.84222 2.55664 6.20899ZM10.3906 14.1038L9.16406 15.3159L9.16406 9.16407C9.16406 8.7973 8.86676 8.5 8.5 8.5C8.13324 8.5 7.83594 8.7973 7.83594 9.16406L7.83593 15.2503L6.67575 14.1038C6.41487 13.846 5.99442 13.8486 5.73663 14.1094C5.47884 14.3703 5.48137 14.7907 5.74221 15.0485L7.1231 16.4131C7.49985 16.7916 8.00046 17 8.5332 17C9.06594 17 9.56655 16.7916 9.9433 16.4131L11.3242 15.0485C11.585 14.7907 11.5876 14.3703 11.3298 14.1094C11.0719 13.8485 10.6515 13.846 10.3906 14.1038ZM10.3319 8.42745C10.4431 8.49907 10.5677 8.53331 10.6908 8.53327C10.909 8.53327 11.1228 8.42579 11.2497 8.22867C11.6447 7.61527 11.8535 6.91545 11.8535 6.20494C11.8535 4.22766 10.3491 2.619 8.5 2.619C6.65088 2.619 5.14648 4.22766 5.14648 6.20494C5.14648 6.96549 5.33899 7.64721 5.71867 8.23112C5.91859 8.53858 6.32994 8.62578 6.63737 8.42586C6.94483 8.22594 7.03202 7.81462 6.83211 7.50716C6.5949 7.14229 6.47461 6.70421 6.47461 6.20494C6.47461 4.95998 7.38318 3.94712 8.5 3.94712C9.61682 3.94712 10.5254 4.95998 10.5254 6.20494C10.5254 6.65989 10.3898 7.11105 10.1331 7.50959C9.93454 7.81798 10.0235 8.2289 10.3319 8.42745Z" fill="white"/>
</svg>
