<svg width="27" height="27" viewBox="0 0 27 27" fill="none" xmlns="http://www.w3.org/2000/svg">
<path d="M27 4.21876L27 10.3359C27 10.9184 26.5278 11.3906 25.9453 11.3906C25.3628 11.3906 24.8906 10.9184 24.8906 10.3359L24.8906 4.21875C24.8906 3.05565 23.9444 2.10938 22.7812 2.10938L4.21875 2.10938C3.05564 2.10938 2.10937 3.05564 2.10937 4.21875L2.10937 15.6094C2.10937 16.7725 3.05564 17.7188 4.21875 17.7188L9.28125 17.7188C9.86375 17.7188 10.3359 18.1909 10.3359 18.7734C10.3359 19.3559 9.86375 19.8281 9.28125 19.8281L4.21875 19.8281C1.89253 19.8281 -3.13596e-06 17.9356 -2.72923e-06 15.6094L-7.3763e-07 4.21875C-3.30901e-07 1.89253 1.89253 3.30901e-07 4.21875 7.3763e-07L22.7812 3.9832e-06C25.1075 4.38993e-06 27 1.89254 27 4.21876ZM25.9453 14.5547C25.3628 14.5547 24.8906 15.0269 24.8906 15.6094C24.8906 16.7725 23.9444 17.7188 22.7812 17.7188L17.7187 17.7188C17.1362 17.7188 16.6641 18.1909 16.6641 18.7734C16.6641 19.3559 17.1362 19.8281 17.7187 19.8281L22.7812 19.8281C25.1075 19.8281 27 17.9356 27 15.6094C27 15.0269 26.5278 14.5547 25.9453 14.5547ZM22.9394 9.86133C22.9394 9.27883 22.4673 8.80665 21.8848 8.80665C21.3023 8.80665 20.8301 9.27883 20.8301 9.86133C20.8301 10.4438 21.3023 10.916 21.8848 10.916C22.4673 10.916 22.9394 10.4438 22.9394 9.86133ZM4.06055 9.86133C4.06055 10.4438 4.53273 10.916 5.11523 10.916C5.69774 10.916 6.16992 10.4438 6.16992 9.86133C6.16992 9.27883 5.69774 8.80664 5.11523 8.80664C4.53273 8.80664 4.06055 9.27883 4.06055 9.86133ZM16.5028 22.4002L14.5547 24.3253L14.5547 14.5547C14.5547 13.9722 14.0825 13.5 13.5 13.5C12.9175 13.5 12.4453 13.9722 12.4453 14.5547L12.4453 24.2211L10.6027 22.4002C10.1883 21.9908 9.52055 21.9948 9.11112 22.4091C8.70169 22.8234 8.7057 23.4912 9.11998 23.9006L11.3132 26.0679C11.9115 26.669 12.7066 27 13.5527 27C14.3989 27 15.1939 26.669 15.7923 26.0679L17.9855 23.9006C18.3998 23.4912 18.4038 22.8234 17.9943 22.4091C17.5849 21.9947 16.9171 21.9907 16.5028 22.4002ZM16.4095 13.3848C16.5861 13.4985 16.7839 13.5529 16.9795 13.5528C17.3261 13.5528 17.6656 13.3821 17.8672 13.0691C18.4946 12.0948 18.8262 10.9834 18.8262 9.8549C18.8262 6.71451 16.4368 4.15959 13.5 4.15958C10.5632 4.15958 8.17383 6.71451 8.17383 9.8549C8.17383 11.0628 8.47958 12.1456 9.0826 13.073C9.40011 13.5613 10.0534 13.6998 10.5417 13.3822C11.03 13.0647 11.1685 12.4115 10.851 11.9231C10.4743 11.3436 10.2832 10.6479 10.2832 9.8549C10.2832 7.87762 11.7262 6.26896 13.5 6.26896C15.2738 6.26896 16.7168 7.87762 16.7168 9.8549C16.7168 10.5775 16.5014 11.294 16.0937 11.927C15.7784 12.4168 15.9197 13.0694 16.4095 13.3848Z" fill="#DAAB03"/>
</svg>
