<svg width="213" height="62" viewBox="0 0 213 62" fill="none" xmlns="http://www.w3.org/2000/svg">
<path d="M123.436 40.1912C123.514 40.1696 123.596 40.1754 123.67 40.2078C123.744 40.2402 123.804 40.2971 123.84 40.3689L125.488 42.5534C126.265 43.5987 127.049 44.6195 127.823 45.6543C128.596 46.6891 129.345 47.71 130.108 48.7343C130.481 49.236 130.868 49.7238 131.241 50.2255C131.289 50.3025 131.357 50.3657 131.437 50.409C131.516 50.4523 131.606 50.4743 131.697 50.4729C132.92 50.4729 134.136 50.4729 135.362 50.4729C135.436 50.4729 135.519 50.4729 135.565 50.3579C135.512 50.2743 135.453 50.1733 135.383 50.0792L133.262 47.3372C132.843 46.7936 132.432 46.2466 132.011 45.7066L130.021 43.1492C129.554 42.5465 129.098 41.9367 128.628 41.334C127.764 40.2156 126.886 39.1006 126.032 37.9787C125.931 37.8498 125.847 37.707 125.753 37.5641C125.875 37.3934 125.976 37.2436 126.102 37.1007L128.781 33.634C129.805 32.31 130.828 30.9872 131.85 29.6656C132.896 28.3067 133.962 26.9514 135.011 25.5891C135.087 25.4881 135.206 25.394 135.181 25.2407C135.153 25.2242 135.123 25.2125 135.091 25.2058H131.425C131.35 25.202 131.275 25.2184 131.208 25.2533C131.142 25.2882 131.085 25.3404 131.046 25.4044C130.83 25.7006 130.603 25.9898 130.38 26.279C129.889 26.8887 129.401 27.5263 128.913 28.1395C128.324 28.9165 127.743 29.6969 127.171 30.4739C126.272 31.6631 125.369 32.8489 124.461 34.0312C124.233 34.3624 123.981 34.6768 123.708 34.9719C123.468 34.9998 123.398 34.8256 123.3 34.6967C122.408 33.5016 121.52 32.3031 120.624 31.1115L117.576 27.0664C117.182 26.5438 116.781 26.0211 116.398 25.495C116.334 25.3935 116.243 25.3112 116.136 25.2567C116.028 25.2021 115.909 25.1773 115.788 25.1849C114.611 25.1849 113.437 25.1849 112.259 25.1849C112.193 25.1849 112.123 25.1849 112.001 25.2128C112.113 25.3835 112.189 25.5124 112.28 25.6309C112.503 25.9375 112.736 26.2371 112.977 26.5403C113.705 27.4949 114.44 28.4461 115.168 29.4008C115.694 30.0976 116.214 30.7944 116.74 31.4738C117.266 32.1532 117.743 32.7734 118.245 33.425L120.739 36.6896L121.238 37.3411C121.3 37.4098 121.335 37.4992 121.335 37.592C121.335 37.6848 121.3 37.7742 121.238 37.8429L121.154 37.9509C120.75 38.4839 120.349 39.0205 119.942 39.5501L117.301 42.9889C115.872 44.8472 114.445 46.7054 113.019 48.5636C112.632 49.0688 112.235 49.5705 111.848 50.0792C111.775 50.1767 111.642 50.2673 111.709 50.445C111.789 50.445 111.862 50.445 111.939 50.445H115.464C115.526 50.4476 115.587 50.4349 115.642 50.4082C115.698 50.3814 115.745 50.3414 115.782 50.2917C115.834 50.2186 115.9 50.1524 115.956 50.0827C116.572 49.2709 117.189 48.4625 117.802 47.6438L121.213 43.1144C121.68 42.4942 122.14 41.8705 122.607 41.2504C122.868 40.9124 123.161 40.5431 123.436 40.1912Z" fill="#009506"/>
<path d="M154.278 25.4077C154.082 25.3475 153.876 25.3273 153.672 25.3484H146.982C146.832 25.3484 146.679 25.3484 146.526 25.3484C146.434 25.3318 146.343 25.3085 146.254 25.2788C146.237 25.1551 146.227 25.0307 146.223 24.906C146.223 24.021 146.223 23.136 146.223 22.251C146.217 22.1132 146.228 21.9753 146.254 21.8399C146.38 21.3695 146.425 20.8783 146.603 20.4218C146.996 19.3766 147.648 18.5195 148.71 18.091C148.983 17.9565 149.276 17.8682 149.578 17.8296C149.82 17.8104 150.061 17.7755 150.299 17.7251C150.539 17.6764 150.785 17.6694 151.027 17.7042C151.421 17.753 151.815 17.7878 152.209 17.8366C152.342 17.8578 152.475 17.8857 152.606 17.9202C152.675 17.9508 152.748 17.9753 152.822 17.9934C153.258 18.0518 153.688 18.1473 154.107 18.2791C154.19 18.2889 154.273 18.2889 154.355 18.2791C154.355 18.1084 154.379 17.9586 154.379 17.8087V15.6764C154.384 15.5848 154.384 15.4929 154.379 15.4012C154.383 15.3086 154.352 15.2179 154.292 15.1474C154.232 15.077 154.147 15.0319 154.055 15.0214C153.756 14.9124 153.445 14.8376 153.128 14.7984C153.066 14.7988 153.006 14.7806 152.954 14.7462C152.818 14.6753 152.665 14.6427 152.512 14.6521C152.209 14.6312 151.905 14.6033 151.602 14.5754C151.372 14.5545 151.149 14.5162 150.905 14.5092C150.54 14.5092 150.174 14.5092 149.808 14.5092C149.687 14.4917 149.563 14.4917 149.442 14.5092C148.916 14.6695 148.345 14.5545 147.832 14.7949C147.37 14.8739 146.922 15.0243 146.505 15.2409C145.243 15.8035 144.218 16.7895 143.606 18.0282C143.354 18.5104 143.156 19.0186 143.014 19.5438C142.908 19.9094 142.822 20.2804 142.756 20.6553C142.617 21.4991 142.557 22.3542 142.578 23.2092C142.599 23.6342 142.578 24.0628 142.578 24.4913C142.578 25.1324 142.578 25.1324 141.955 25.1359H139.666C139.504 25.1114 139.338 25.1282 139.185 25.1847C139.103 25.3023 139.069 25.447 139.091 25.5888C139.091 26.3379 139.091 27.087 139.091 27.8326C139.091 28.2612 139.139 28.3065 139.568 28.3065C140.317 28.3065 141.063 28.3065 141.812 28.3065H142.178C142.526 28.3065 142.564 28.3762 142.578 28.7211C142.578 28.8744 142.578 29.0277 142.578 29.181V49.6051C142.578 49.7723 142.578 49.9535 142.578 50.1103C142.588 50.1982 142.603 50.2855 142.624 50.3716C142.687 50.3931 142.752 50.4071 142.819 50.4134H145.986C146.065 50.4009 146.141 50.3762 146.212 50.3403C146.212 50.1277 146.212 49.9326 146.212 49.734C146.212 42.8215 146.212 35.9066 146.212 28.9894C146.212 28.2925 146.212 28.2925 146.909 28.2925H153.595C153.731 28.2925 153.87 28.2925 154.006 28.2925C154.091 28.2801 154.175 28.2614 154.257 28.2368C154.34 27.2958 154.347 26.3497 154.278 25.4077Z" fill="#009506"/>
<path d="M196.827 25.2106C196.762 25.3597 196.738 25.5232 196.757 25.6845V27.8342C196.757 28.3917 196.757 28.3917 197.318 28.3986H197.503C198.199 28.3986 198.935 28.3986 199.652 28.3986C199.805 28.4009 199.958 28.4137 200.109 28.437C200.163 28.4436 200.212 28.4695 200.249 28.5098C200.285 28.5501 200.306 28.6021 200.307 28.6565C200.307 28.8237 200.307 29.0049 200.307 29.1617V44.1818C200.307 44.4431 200.307 44.701 200.307 44.9623C200.299 45.0688 200.308 45.1759 200.335 45.2793C200.492 45.6974 200.482 46.1469 200.621 46.5685C200.741 46.9764 200.895 47.3738 201.081 47.7566C201.663 48.9277 202.655 49.844 203.868 50.3314C204.478 50.6107 205.131 50.784 205.798 50.8435C205.916 50.8588 206.032 50.8821 206.147 50.9132C206.916 51.0306 207.699 51.04 208.471 50.9411C208.743 50.9132 209.011 50.861 209.283 50.8191C209.359 50.815 209.434 50.8057 209.509 50.7913C209.857 50.6902 210.206 50.5927 210.554 50.4812C211.021 50.3479 211.468 50.1509 211.882 49.8959C211.882 48.9203 211.882 47.9587 211.882 46.997C211.882 46.9448 211.84 46.896 211.816 46.8333C211.429 46.9831 211.066 47.1364 210.697 47.2653C210.41 47.3668 210.117 47.4494 209.819 47.5127C209.22 47.6271 208.61 47.6738 208 47.6521C207.278 47.6457 206.566 47.4829 205.913 47.1747C205.453 46.9533 205.051 46.6255 204.742 46.2184C204.433 45.8113 204.226 45.3366 204.136 44.8334C204.116 44.7428 204.084 44.6557 204.07 44.5651C204.035 44.3735 203.99 44.1784 203.973 43.9832C203.955 43.7881 203.973 43.5268 203.973 43.2864V28.9631C203.967 28.8714 203.967 28.7795 203.973 28.6878C203.973 28.5066 204.049 28.4335 204.22 28.4161C204.388 28.4074 204.557 28.4074 204.725 28.4161H211.272C211.425 28.4161 211.579 28.4161 211.732 28.4161C211.767 28.4194 211.802 28.4156 211.835 28.4047C211.868 28.3939 211.898 28.3762 211.924 28.353C211.95 28.3297 211.971 28.3013 211.985 28.2696C211.999 28.2378 212.007 28.2035 212.007 28.1687C212.012 28.0933 212.012 28.0176 212.007 27.9422C212.007 27.1757 212.007 26.4115 212.007 25.6496C212.017 25.5758 212.013 25.5006 211.993 25.4287C211.973 25.3568 211.939 25.2897 211.892 25.2315C211.749 25.2315 211.586 25.2315 211.418 25.2315H204.45C204.292 25.2619 204.128 25.232 203.99 25.1479C203.938 24.9789 203.923 24.8007 203.945 24.6253V18.1657C203.96 17.9786 203.945 17.7903 203.9 17.6082C203.811 17.588 203.722 17.5741 203.631 17.5664C202.621 17.5664 201.613 17.5664 200.607 17.5664C200.511 17.5755 200.417 17.5941 200.325 17.6222C200.325 17.8208 200.325 18.0019 200.325 18.1831V24.2316C200.325 24.4441 200.325 24.6601 200.325 24.8727C200.315 24.9519 200.297 25.0301 200.273 25.1061C200.112 25.1852 199.931 25.2131 199.753 25.1862H197.28C197.119 25.1897 196.97 25.2037 196.827 25.2106Z" fill="#009506"/>
<path d="M164.168 50.454C164.241 50.2198 164.265 49.9731 164.238 49.7293V25.9186C164.238 25.7653 164.238 25.612 164.238 25.4587C164.224 25.3736 164.203 25.2897 164.175 25.2078C164.112 25.1877 164.046 25.1737 163.98 25.166H160.865C160.795 25.1748 160.726 25.1923 160.66 25.2183C160.612 25.4024 160.599 25.5938 160.622 25.7827C160.622 33.7963 160.622 41.8098 160.622 49.8234C160.622 49.9453 160.622 50.0672 160.622 50.1718C160.634 50.2492 160.65 50.326 160.67 50.4017C160.762 50.4214 160.855 50.4354 160.949 50.4435C162.015 50.4644 163.06 50.4853 164.168 50.454Z" fill="#009506"/>
<path d="M164.407 15.5951C164.274 15.5742 164.205 15.5533 164.128 15.5498C164.051 15.5463 163.884 15.5498 163.762 15.5498H160.794C160.633 15.5498 160.445 15.5045 160.32 15.6473C160.305 15.6915 160.296 15.737 160.292 15.7832C160.292 16.9446 160.292 18.106 160.292 19.2674C160.292 19.5357 160.355 19.5879 160.612 19.6158H163.901C164.414 19.6158 164.441 19.5879 164.441 19.0688C164.441 18.0793 164.441 17.0898 164.441 16.1003C164.452 15.933 164.417 15.7832 164.407 15.5951Z" fill="#009506"/>
<path d="M51.2977 50.4625C51.2784 50.3718 51.2655 50.2798 51.2594 50.1872V16.2795C51.348 16.249 51.4388 16.2257 51.5312 16.2098C51.667 16.2098 51.8064 16.2098 51.9423 16.2098H62.8442H64.2657C64.3567 16.2067 64.4477 16.2125 64.5375 16.2272C65.0173 16.323 65.5047 16.3754 65.9939 16.384C66.0698 16.3872 66.1455 16.3953 66.2203 16.4084C66.7604 16.5059 67.3039 16.5861 67.8335 16.715C68.3631 16.8439 68.9519 16.9798 69.4989 17.1714C70.1156 17.3874 70.7323 17.593 71.3316 17.8682C72.5294 18.3922 73.6633 19.0515 74.7112 19.8333C77.043 21.5485 78.8592 23.8708 79.9618 26.5473C80.1988 27.1221 80.4078 27.704 80.596 28.2893C80.7841 28.8747 80.8224 29.4252 80.9722 29.9826C81.1499 30.6342 81.0907 31.3171 81.2545 31.9721C81.2802 32.1075 81.2884 32.2457 81.2788 32.3832C81.2788 32.979 81.2788 33.5713 81.2788 34.1671C81.2788 34.3518 81.2475 34.5329 81.2301 34.7141C81.1917 35.0939 81.1604 35.4737 81.1046 35.8499C81.0419 36.2855 80.9618 36.721 80.8747 37.153C80.8015 37.5014 80.7109 37.8498 80.6203 38.2192C80.5646 38.4387 80.4984 38.6582 80.4218 38.8707C79.8076 40.6911 78.8861 42.3927 77.6971 43.9018C76.9221 44.8592 76.0512 45.7348 75.098 46.5149C74.5671 46.9456 74.0097 47.3424 73.4291 47.703C72.8786 48.0514 72.2828 48.3302 71.687 48.6263C70.9974 48.9755 70.2779 49.2623 69.5373 49.4834C69.1092 49.6339 68.67 49.7504 68.2237 49.8318C67.9659 49.9956 67.6488 49.9224 67.3875 50.0339C67.1238 50.1037 66.8545 50.1503 66.5827 50.1733C65.8785 50.3055 65.1661 50.3893 64.4504 50.4241C63.8885 50.473 63.3242 50.4869 62.7606 50.466C59.446 50.466 56.1326 50.466 52.8203 50.466C52.4719 50.466 52.1235 50.466 51.7751 50.466C51.6427 50.4834 51.4928 50.4694 51.2977 50.4625ZM55.1303 46.9783C55.3324 46.9783 55.4996 46.9992 55.6634 46.9992H63.4504C63.9855 47.0289 64.522 46.9796 65.0427 46.8529C65.1165 46.8336 65.193 46.8265 65.2692 46.832C65.8171 46.8144 66.361 46.7313 66.8893 46.5846C67.3622 46.4878 67.8278 46.3586 68.283 46.1979C68.9876 45.9655 69.6736 45.6801 70.3351 45.3443C71.4385 44.7903 72.4541 44.0765 73.3489 43.2259C74.4817 42.1372 75.4051 40.85 76.0735 39.4282C76.2477 39.0588 76.3941 38.6756 76.5334 38.2923C76.708 37.8224 76.8523 37.3417 76.9655 36.8534C77.0456 36.505 77.0735 36.1287 77.171 35.7768C77.2541 35.4345 77.2973 35.0837 77.2999 34.7315C77.2824 34.3039 77.3069 33.8756 77.3731 33.4528C77.3869 33.3628 77.3869 33.2711 77.3731 33.1811C77.3557 32.9825 77.3243 32.7874 77.3209 32.5923C77.3485 32.0424 77.2933 31.4916 77.1571 30.9582C77.1401 30.8686 77.1319 30.7776 77.1327 30.6864C77.1261 30.5799 77.1121 30.474 77.0909 30.3694C76.892 29.4947 76.6241 28.6373 76.2895 27.805C76.028 27.1734 75.7158 26.564 75.3558 25.9828C74.6699 24.8827 73.8138 23.8983 72.8193 23.0666C72.6207 22.8994 72.4221 22.7182 72.2166 22.5788C71.4734 22.0013 70.6669 21.5103 69.8125 21.1155C68.9519 20.7037 68.0438 20.3995 67.1088 20.2096C67.0628 20.2068 67.0178 20.195 66.9764 20.1747C66.7866 20.075 66.5739 20.027 66.3597 20.0354C66.2683 20.0368 66.1773 20.0214 66.0914 19.9901C65.8486 19.8953 65.5889 19.8514 65.3284 19.8612C65.1916 19.8656 65.0548 19.8539 64.9208 19.8263C64.3974 19.7175 63.8625 19.6742 63.3285 19.6974C60.8106 19.6974 58.2904 19.6974 55.7679 19.6974C55.6309 19.6905 55.4937 19.6905 55.3568 19.6974C55.2618 19.7146 55.1685 19.7403 55.078 19.7741C55.078 19.9831 55.0571 20.1782 55.0571 20.3768V46.3407C55.0571 46.4627 55.0571 46.5846 55.0571 46.7066C55.0702 46.7993 55.0888 46.8913 55.1129 46.9818L55.1303 46.9783Z" fill="#009506"/>
<path d="M108.097 39.1635C107.846 39.1635 107.633 39.1635 107.421 39.1635H88.7772C88.5925 39.1635 88.4113 39.1635 88.2267 39.1635C88.1957 39.163 88.165 39.1688 88.1364 39.1806C88.1079 39.1925 88.082 39.21 88.0604 39.2322C88.0389 39.2544 88.0221 39.2808 88.0112 39.3097C88.0002 39.3387 87.9953 39.3695 87.9967 39.4004C88.0039 39.5968 88.0248 39.7924 88.0594 39.9858C88.095 40.0999 88.1229 40.2163 88.1431 40.3342C88.1745 40.6931 88.259 41.0453 88.3939 41.3794C88.7668 42.62 89.3932 43.7697 90.2336 44.7556C91.0051 45.6462 91.9546 46.3654 93.0209 46.867C93.7038 47.2016 94.4313 47.4363 95.181 47.5638C96.0471 47.7505 96.9367 47.8022 97.8185 47.7171C98.4213 47.63 99.0275 47.5603 99.6233 47.4384C100.04 47.3505 100.449 47.2245 100.843 47.0621C101.495 46.8133 102.119 46.4981 102.707 46.1214C103.203 45.7961 103.677 45.4401 104.128 45.0552C104.337 44.881 104.533 44.6859 104.735 44.5012C104.822 44.4211 104.919 44.3479 105.02 44.2608C105.444 44.5377 105.835 44.8627 106.184 45.2294C106.568 45.5387 106.93 45.874 107.268 46.2328C107.213 46.3266 107.151 46.4163 107.083 46.5011C106.452 47.2051 105.759 47.8511 105.013 48.4313C104.416 48.8747 103.784 49.2708 103.125 49.616C102.265 50.0319 101.366 50.3633 100.442 50.6055C99.9404 50.6368 99.47 50.8633 98.9579 50.8424C98.8406 50.8343 98.7228 50.8461 98.6094 50.8772C98.1792 50.9843 97.7349 51.0243 97.2924 50.9957C96.9998 50.9957 96.7106 50.9957 96.4214 50.9957C96.1008 51.0067 95.7801 50.9775 95.4667 50.9086C95.2727 50.8678 95.0759 50.841 94.8779 50.8284C94.6794 50.8329 94.4822 50.7949 94.2996 50.7169C94.2451 50.6898 94.186 50.6733 94.1253 50.6682C93.407 50.5457 92.7055 50.3399 92.0349 50.055C91.328 49.7775 90.6519 49.4272 90.0175 49.0097C89.6691 48.7867 89.3207 48.5533 89.0141 48.3129C87.817 47.366 86.8108 46.2002 86.0491 44.8775C85.6581 44.1909 85.3248 43.473 85.0526 42.7313C84.8889 42.2923 84.8227 41.8184 84.6728 41.3725C84.523 40.9265 84.5474 40.4039 84.3906 39.937C84.3561 39.804 84.3444 39.6662 84.3558 39.5293C84.3558 38.4458 84.3558 37.3622 84.3558 36.2786C84.3712 36.0817 84.4003 35.8861 84.4429 35.6933C84.4429 35.6201 84.4882 35.547 84.4952 35.4703C84.5775 34.6634 84.7517 33.8685 85.0143 33.1011C85.2154 32.4789 85.4719 31.8761 85.7808 31.2998C86.3987 30.0764 87.2119 28.962 88.1884 28.0003C88.9114 27.3014 89.7176 26.6941 90.5889 26.192C91.2873 25.7923 92.0282 25.472 92.7979 25.2374C93.1075 25.1062 93.4353 25.0228 93.77 24.99C93.8446 24.9792 93.918 24.9617 93.9895 24.9377C94.1498 24.8937 94.3127 24.86 94.4772 24.8367C94.844 24.8349 95.2086 24.7821 95.5608 24.6799C95.6507 24.664 95.7427 24.664 95.8326 24.6799H96.7489C97.0198 24.6655 97.2914 24.6854 97.5572 24.7391C97.8118 24.7916 98.0708 24.8196 98.3307 24.8227C98.5144 24.8183 98.697 24.8515 98.8673 24.9203C98.9231 24.9445 98.9816 24.9621 99.0415 24.9726C99.9737 25.1234 100.876 25.4222 101.714 25.8575C102.603 26.2991 103.424 26.8658 104.153 27.5404C105.221 28.5433 106.091 29.7383 106.717 31.0629C107.114 31.8662 107.422 32.711 107.633 33.5819C107.727 33.9791 107.832 34.3763 107.926 34.777C107.95 34.878 107.943 34.9895 107.961 35.094C107.992 35.3205 108.034 35.5435 108.069 35.7699C108.096 35.8844 108.114 36.001 108.121 36.1184C108.135 37.0173 108.143 37.9185 108.146 38.8221C108.138 38.937 108.122 39.0512 108.097 39.1635ZM104.411 36.4563C104.49 36.2309 104.49 35.9849 104.411 35.7595C104.264 35.3553 104.351 34.9059 104.132 34.5191C104.149 34.1707 103.933 33.9129 103.916 33.5923C103.687 32.9421 103.405 32.3117 103.073 31.7074C102.45 30.5791 101.558 29.6217 100.477 28.9201C99.7672 28.446 98.9661 28.1256 98.1252 27.9794C98.0806 27.9747 98.0371 27.963 97.9962 27.9445C97.7737 27.8392 97.5273 27.7948 97.282 27.8156C96.8081 27.8156 96.3343 27.8156 95.8605 27.8156C95.4655 27.7699 95.0655 27.8238 94.6968 27.9724C94.667 27.9797 94.6359 27.9797 94.6062 27.9724C94.2849 27.9895 93.9706 28.0725 93.6829 28.2163C92.8034 28.5502 91.9913 29.04 91.2858 29.6622C90.3578 30.4783 89.6031 31.4723 89.0664 32.5854C88.8078 33.1527 88.5821 33.7343 88.3904 34.3275C88.2939 34.616 88.2217 34.912 88.1744 35.2125C88.1499 35.4089 88.1115 35.6033 88.0594 35.7943C87.9723 36.0064 87.9723 36.2443 88.0594 36.4563C88.2623 36.5347 88.4814 36.561 88.697 36.533H103.815C103.931 36.5393 104.047 36.5393 104.163 36.533C104.248 36.5154 104.331 36.4897 104.411 36.4563Z" fill="#009506"/>
<path d="M173.623 29.8283C173.246 28.8946 172.909 27.9294 172.578 26.9434C172.766 26.8494 172.909 26.7588 173.058 26.703C173.699 26.4626 174.323 26.1839 174.971 25.9644C175.72 25.7135 176.48 25.5149 177.246 25.3198C177.728 25.252 178.205 25.1554 178.675 25.0306C179.347 25.0306 180.009 24.8773 180.678 24.846C181.347 24.8146 182.02 24.846 182.692 24.846C182.799 24.8406 182.907 24.8476 183.013 24.8669C183.429 24.9608 183.854 25.0134 184.281 25.0237C184.386 25.0314 184.491 25.0477 184.594 25.0724C184.772 25.1073 184.943 25.1456 185.127 25.1909C185.525 25.2919 185.925 25.3825 186.316 25.5045C187.357 25.8316 188.331 26.3438 189.19 27.0166C190.233 27.8458 191.052 28.9241 191.57 30.1523C191.811 30.7425 192.002 31.3521 192.141 31.9745C192.305 32.6017 192.256 33.2497 192.434 33.8699C192.461 34.0051 192.469 34.1435 192.458 34.2811V49.9911C192.458 50.127 192.458 50.2629 192.437 50.4196C192.349 50.4472 192.258 50.4659 192.165 50.4754H189.281C189.206 50.4706 189.133 50.4589 189.061 50.4405C188.979 50.2896 188.948 50.1158 188.974 49.9458C188.974 49.0748 188.974 48.2037 188.974 47.3327C188.972 47.1963 188.962 47.0601 188.943 46.925C188.939 46.9061 188.93 46.8884 188.918 46.8733C188.906 46.8583 188.89 46.8463 188.873 46.8385C188.855 46.8307 188.836 46.8272 188.816 46.8283C188.797 46.8294 188.778 46.8351 188.761 46.8449C188.673 46.9029 188.592 46.972 188.521 47.0505C188.179 47.4578 187.809 47.8408 187.413 48.1968C186.697 48.8362 185.902 49.3807 185.047 49.8169C184.343 50.1737 183.597 50.444 182.828 50.6217C182.394 50.7674 181.941 50.8461 181.483 50.8552C181.422 50.8514 181.361 50.8585 181.302 50.8761C180.813 50.9987 180.307 51.0423 179.804 51.005H179.023C178.918 51.0155 178.812 51.0155 178.706 51.005C178.305 50.897 177.884 50.9074 177.487 50.8168C176.802 50.6782 176.129 50.4872 175.473 50.2454C174.732 49.9667 174.03 49.5956 173.382 49.141C172.251 48.3599 171.366 47.272 170.832 46.0052C170.496 45.2047 170.326 44.344 170.334 43.4757C170.334 43.0332 170.334 42.5908 170.362 42.1483C170.396 41.6463 170.491 41.1504 170.644 40.671C170.845 39.9688 171.166 39.3065 171.592 38.7129C172.167 37.9054 172.9 37.2218 173.745 36.7025C174.392 36.3051 175.08 35.978 175.797 35.727C176.25 35.5667 176.738 35.497 177.191 35.3577C177.643 35.2183 178.215 35.2148 178.717 35.0754C178.831 35.0469 178.948 35.0328 179.065 35.0336C180.577 35.0336 182.086 35.0127 183.594 35.0336C184.169 35.0336 184.741 35.1765 185.336 35.2357C185.789 35.2979 186.238 35.3828 186.681 35.4901C187.132 35.5615 187.577 35.6663 188.012 35.8036C188.236 35.8405 188.456 35.8941 188.671 35.9639C188.693 35.9726 188.716 35.9765 188.74 35.9755C188.763 35.9745 188.786 35.9685 188.807 35.958C188.828 35.9475 188.847 35.9326 188.862 35.9144C188.877 35.8962 188.888 35.8751 188.894 35.8524C188.926 35.7521 188.945 35.6477 188.95 35.5423C188.956 35.1154 188.926 34.6888 188.859 34.2671C188.859 34.0825 188.831 33.9013 188.803 33.7201C188.775 33.5389 188.741 33.3717 188.702 33.187C188.702 33.1139 188.657 33.0407 188.643 32.9675C188.419 31.8723 187.879 30.8669 187.089 30.0757C186.358 29.361 185.463 28.8359 184.483 28.5461C183.762 28.2933 183.003 28.1672 182.239 28.1733C182.056 28.1751 181.873 28.154 181.696 28.1106C181.441 28.0601 181.18 28.0601 180.926 28.1106C180.732 28.151 180.535 28.1743 180.337 28.1803C179.543 28.1769 178.751 28.2741 177.981 28.4695C177.452 28.5949 176.915 28.7064 176.396 28.8806C175.587 29.135 174.796 29.4423 174.027 29.8004C173.899 29.8558 173.757 29.8656 173.623 29.8283ZM181.748 37.6293H180.131C180.024 37.6205 179.916 37.6335 179.814 37.6676C179.571 37.7561 179.313 37.7986 179.055 37.7931C178.978 37.7933 178.902 37.8027 178.828 37.8209C178.48 37.9185 178.163 38.023 177.828 38.1241C176.722 38.427 175.735 39.0603 174.999 39.9393C174.486 40.5481 174.159 41.2921 174.058 42.0821C173.939 42.8224 173.983 43.5799 174.187 44.3015C174.354 44.8548 174.626 45.3706 174.989 45.8206C175.714 46.6969 176.684 47.3363 177.776 47.6567C178.051 47.7438 178.34 47.7856 178.612 47.8727C178.874 47.9481 179.144 47.9914 179.417 48.0016C179.661 48.0191 179.901 48.0539 180.145 48.0644C180.389 48.0748 180.602 48.0644 180.842 48.0469C180.992 48.0257 181.143 48.0129 181.295 48.0086C181.875 48.0157 182.453 47.9359 183.009 47.7717C183.885 47.5753 184.724 47.2426 185.497 46.7857C186.748 46.101 187.758 45.049 188.392 43.7719C188.643 43.3201 188.801 42.8225 188.855 42.3085C188.861 42.2634 188.871 42.219 188.887 42.1761C188.982 41.8697 189.025 41.5492 189.012 41.2284V39.232C189.012 39.1414 189.012 39.0474 189.012 38.9568C189.008 38.8806 188.979 38.8079 188.929 38.75C188.879 38.6921 188.812 38.6521 188.737 38.6362C188.389 38.5422 188.009 38.4272 187.64 38.3331C187.361 38.2634 187.079 38.2007 186.793 38.1589C186.38 38.051 185.958 37.9845 185.532 37.9603C185.501 37.9605 185.471 37.9521 185.445 37.9359C185.174 37.8312 184.884 37.786 184.594 37.8035C184.382 37.801 184.17 37.7824 183.96 37.7478C183.556 37.6615 183.144 37.6217 182.73 37.6293C182.389 37.6293 182.068 37.6293 181.748 37.6293Z" fill="#009506"/>
<path d="M123.438 40.1883C123.163 40.5367 122.87 40.9095 122.588 41.2858C122.121 41.906 121.661 42.5296 121.194 43.1498L117.783 47.6792C117.17 48.4945 116.554 49.3028 115.937 50.1181C115.881 50.1878 115.815 50.254 115.763 50.3271C115.726 50.3768 115.679 50.4169 115.623 50.4436C115.568 50.4703 115.507 50.483 115.446 50.4804H111.92C111.843 50.4804 111.77 50.4804 111.69 50.4804C111.623 50.3028 111.756 50.2122 111.829 50.1146C112.216 49.6059 112.613 49.1042 113 48.599C114.428 46.7408 115.856 44.8826 117.282 43.0244L119.923 39.5855C120.33 39.0559 120.731 38.5194 121.135 37.9863L121.219 37.8783C121.281 37.8096 121.316 37.7202 121.316 37.6274C121.316 37.5346 121.281 37.4452 121.219 37.3766L120.721 36.725L118.226 33.4464C117.724 32.7949 117.219 32.1468 116.721 31.4953C116.223 30.8438 115.675 30.1016 115.149 29.4222C114.421 28.4676 113.686 27.5164 112.958 26.5618C112.728 26.2586 112.494 25.959 112.261 25.6524C112.17 25.5339 112.094 25.405 111.982 25.2343C112.104 25.2343 112.174 25.2064 112.24 25.2064C113.418 25.2064 114.592 25.2064 115.77 25.2064C115.89 25.1988 116.01 25.2236 116.117 25.2781C116.224 25.3327 116.315 25.415 116.379 25.5165C116.763 26.0461 117.163 26.5618 117.557 27.0879L120.606 31.133C121.501 32.3245 122.389 33.5231 123.281 34.7182C123.379 34.8471 123.449 35.0213 123.689 34.9934C123.962 34.6982 124.214 34.3839 124.442 34.0527C125.352 32.8727 126.256 31.6869 127.152 30.4954C127.741 29.7184 128.323 28.9379 128.894 28.161C129.375 27.5338 129.863 26.9102 130.344 26.2865C130.567 25.9973 130.793 25.7081 131.009 25.412C131.049 25.348 131.105 25.2958 131.172 25.2608C131.239 25.2259 131.314 25.2095 131.389 25.2134H135.054C135.086 25.22 135.117 25.2318 135.145 25.2482C135.169 25.4015 135.051 25.4956 134.974 25.5966C133.929 26.9589 132.866 28.3143 131.814 29.6731C130.762 31.0319 129.769 32.3176 128.745 33.6415L126.065 37.1083C125.954 37.2511 125.853 37.4009 125.717 37.5717C125.811 37.7145 125.895 37.8574 125.996 37.9863C126.86 39.1082 127.738 40.2231 128.591 41.3415C129.058 41.9443 129.515 42.554 129.985 43.1568L131.974 45.7141C132.396 46.2542 132.807 46.8012 133.225 47.3447L135.347 50.0867C135.417 50.1808 135.476 50.2819 135.528 50.3655C135.483 50.4909 135.399 50.4804 135.326 50.4804C134.107 50.4804 132.887 50.4804 131.661 50.4804C131.57 50.4819 131.48 50.4599 131.4 50.4165C131.32 50.3732 131.253 50.31 131.204 50.2331C130.832 49.7314 130.445 49.2436 130.072 48.7419C129.309 47.7175 128.553 46.6862 127.786 45.6619C127.02 44.6375 126.229 43.5958 125.452 42.561L123.804 40.3764C123.771 40.3103 123.718 40.2564 123.652 40.2226C123.586 40.1888 123.511 40.1767 123.438 40.1883Z" fill="#009506"/>
<path d="M154.279 25.4112C154.357 26.3701 154.357 27.3337 154.279 28.2926C154.197 28.3172 154.113 28.3359 154.028 28.3483C153.892 28.3483 153.753 28.3483 153.617 28.3483H146.92C146.223 28.3483 146.223 28.3483 146.223 29.0452C146.223 35.9601 146.223 42.8749 146.223 49.7898C146.223 49.9884 146.223 50.1835 146.223 50.396C146.152 50.432 146.076 50.4567 145.997 50.4692H142.851C142.784 50.4629 142.719 50.4489 142.656 50.4274C142.635 50.3413 142.62 50.254 142.61 50.1661C142.61 49.9989 142.61 49.8177 142.61 49.6609V29.2298C142.61 29.0765 142.61 28.9232 142.61 28.7699C142.61 28.4215 142.544 28.3692 142.21 28.3553H141.844C141.095 28.3553 140.349 28.3553 139.6 28.3553C139.171 28.3553 139.126 28.31 139.123 27.8815C139.123 27.1359 139.123 26.3868 139.123 25.6377C139.101 25.4959 139.135 25.3511 139.217 25.2335C139.37 25.177 139.536 25.1603 139.698 25.1847H141.987C142.61 25.1847 142.61 25.1847 142.61 24.5402C142.61 24.1116 142.628 23.6831 142.61 23.258C142.589 22.403 142.649 21.5479 142.788 20.7041C142.854 20.3292 142.94 19.9582 143.046 19.5927C143.188 19.0674 143.386 18.5592 143.638 18.0771C144.25 16.8383 145.275 15.8524 146.537 15.2897C146.954 15.0732 147.402 14.9227 147.864 14.8438C148.377 14.6034 148.948 14.7183 149.474 14.5581C149.595 14.5405 149.719 14.5405 149.84 14.5581C150.206 14.5581 150.572 14.5581 150.937 14.5581C151.167 14.5581 151.39 14.6034 151.634 14.6243C151.937 14.6521 152.241 14.68 152.544 14.7009C152.697 14.6916 152.85 14.7241 152.986 14.795C153.038 14.8294 153.098 14.8476 153.16 14.8473C153.477 14.8864 153.788 14.9612 154.087 15.0702C154.179 15.0807 154.264 15.1258 154.324 15.1963C154.384 15.2668 154.415 15.3574 154.411 15.45C154.416 15.5417 154.416 15.6336 154.411 15.7253V17.8158C154.411 17.9656 154.411 18.1154 154.387 18.2861C154.305 18.2959 154.222 18.2959 154.139 18.2861C153.72 18.1544 153.29 18.0588 152.854 18.0004C152.78 17.9823 152.707 17.9578 152.638 17.9272C152.507 17.8927 152.374 17.8648 152.241 17.8436C151.847 17.7948 151.453 17.76 151.059 17.7112C150.817 17.6764 150.571 17.6834 150.331 17.7321C150.093 17.7825 149.852 17.8175 149.61 17.8367C149.308 17.8752 149.015 17.9635 148.742 18.098C147.662 18.5265 147.028 19.3732 146.635 20.4289C146.464 20.8853 146.419 21.3766 146.286 21.8469C146.26 21.9823 146.249 22.1203 146.255 22.258C146.255 23.143 146.255 24.028 146.255 24.913C146.259 25.0377 146.269 25.1621 146.286 25.2858C146.375 25.3155 146.466 25.3388 146.558 25.3555C146.711 25.3555 146.864 25.3555 147.014 25.3555H153.704C153.897 25.3374 154.092 25.3563 154.279 25.4112Z" fill="#009506"/>
<path d="M196.827 25.213C196.97 25.213 197.12 25.1921 197.27 25.1921H199.744C199.921 25.219 200.102 25.191 200.263 25.112C200.287 25.0359 200.305 24.9578 200.315 24.8785C200.315 24.666 200.315 24.45 200.315 24.2374V18.189C200.315 18.0078 200.315 17.8405 200.315 17.628C200.407 17.6 200.501 17.5813 200.597 17.5723C201.605 17.5723 202.613 17.5723 203.621 17.5723C203.712 17.5799 203.801 17.5939 203.89 17.6141C203.935 17.7962 203.95 17.9845 203.935 18.1715V24.5824C203.913 24.7578 203.928 24.936 203.98 25.105C204.118 25.1891 204.282 25.2189 204.44 25.1886H211.408C211.576 25.1886 211.757 25.1886 211.882 25.1886C211.929 25.2468 211.963 25.3139 211.983 25.3858C212.003 25.4577 212.008 25.5329 211.997 25.6067C211.997 26.3686 211.997 27.1328 211.997 27.8993C212.002 27.9747 212.002 28.0504 211.997 28.1258C211.997 28.1606 211.989 28.1949 211.975 28.2267C211.961 28.2584 211.94 28.2868 211.914 28.31C211.888 28.3333 211.858 28.3509 211.825 28.3618C211.792 28.3727 211.757 28.3765 211.722 28.3731C211.569 28.3731 211.415 28.3731 211.262 28.3731H204.715C204.547 28.3644 204.379 28.3644 204.21 28.3731C204.039 28.3731 203.977 28.4637 203.963 28.6449C203.958 28.7366 203.958 28.8285 203.963 28.9201V43.2539C203.963 43.4839 203.963 43.7139 203.963 43.9508C203.963 44.1877 204.026 44.341 204.06 44.5326C204.06 44.6232 204.106 44.7103 204.127 44.8009C204.216 45.3041 204.424 45.7788 204.733 46.1859C205.042 46.593 205.443 46.9208 205.904 47.1423C206.566 47.4549 207.289 47.6178 208.022 47.6196C208.631 47.6414 209.242 47.5946 209.841 47.4802C210.138 47.417 210.432 47.3343 210.719 47.2328C211.088 47.1039 211.45 46.9506 211.837 46.8008C211.861 46.8635 211.903 46.9123 211.903 46.9646C211.903 47.9262 211.903 48.8878 211.903 49.8634C211.49 50.1184 211.043 50.3154 210.576 50.4487C210.227 50.5602 209.879 50.6578 209.531 50.7588C209.456 50.7732 209.38 50.7825 209.304 50.7867C209.032 50.8285 208.764 50.8807 208.492 50.9086C207.72 51.0076 206.938 50.9982 206.168 50.8807C206.054 50.8496 205.937 50.8264 205.82 50.8111C205.152 50.7515 204.499 50.5783 203.89 50.2989C202.676 49.8116 201.684 48.8952 201.102 47.7241C200.917 47.3413 200.763 46.944 200.642 46.536C200.503 46.1144 200.514 45.665 200.357 45.2469C200.33 45.1435 200.32 45.0363 200.329 44.9298C200.329 44.6685 200.329 44.4107 200.329 44.1494V29.164C200.329 28.9968 200.329 28.8156 200.329 28.6588C200.328 28.6045 200.307 28.5524 200.27 28.5121C200.234 28.4719 200.184 28.446 200.13 28.4393C199.979 28.416 199.827 28.4032 199.674 28.401C198.956 28.401 198.238 28.401 197.524 28.401H197.339C196.782 28.401 196.782 28.401 196.779 27.8366V25.6869C196.753 25.5274 196.77 25.364 196.827 25.213Z" fill="#009506"/>
<path d="M164.168 50.4548C163.07 50.4862 162 50.4548 160.934 50.4548C160.841 50.4467 160.748 50.4327 160.656 50.413C160.635 50.3373 160.619 50.2605 160.607 50.1831C160.607 50.0611 160.607 49.9392 160.607 49.8346C160.607 41.8211 160.607 33.8076 160.607 25.794C160.586 25.6035 160.602 25.4109 160.652 25.2261C160.718 25.2002 160.787 25.1826 160.858 25.1738H163.972C164.039 25.1815 164.104 25.1955 164.168 25.2156C164.195 25.2975 164.216 25.3814 164.23 25.4665C164.23 25.6198 164.23 25.7731 164.23 25.9264V49.7371C164.259 49.9781 164.237 50.2224 164.168 50.4548Z" fill="#009506"/>
<path d="M164.408 15.5949C164.408 15.7831 164.436 15.9433 164.436 16.0827C164.436 17.0722 164.436 18.0617 164.436 19.0512C164.436 19.5703 164.408 19.5947 163.896 19.5982H160.621C160.363 19.5773 160.3 19.525 160.3 19.2498C160.3 18.0884 160.3 16.927 160.3 15.7656C160.304 15.7195 160.314 15.6739 160.328 15.6298C160.464 15.4869 160.641 15.5322 160.802 15.5322H163.756C163.878 15.5322 164 15.5322 164.122 15.5322C164.244 15.5322 164.275 15.574 164.408 15.5949Z" fill="#009506"/>
<path d="M0.000956529 7.20547C-0.0189235 8.43492 0.271367 9.64956 0.84501 10.7372C1.41865 11.8248 2.25715 12.7503 3.28303 13.4282L24.7733 27.6261C25.3461 28.0106 25.8149 28.5309 26.1379 29.1407C26.4608 29.7504 26.6278 30.4306 26.624 31.1205C26.6202 31.8105 26.4457 32.4888 26.1161 33.0949C25.7865 33.701 25.312 34.2162 24.7349 34.5944L3.67325 48.1826C2.63748 48.8504 1.78717 49.769 1.20122 50.8532C0.615271 51.9374 0.312671 53.152 0.321498 54.3844V54.7328C0.377245 61.2133 8.20613 64.4257 12.7982 59.8545L38.689 34.0718C39.0776 33.6852 39.386 33.2256 39.5964 32.7195C39.8068 32.2133 39.9152 31.6706 39.9152 31.1224C39.9152 30.5743 39.8068 30.0315 39.5964 29.5254C39.386 29.0192 39.0776 28.5597 38.689 28.1731L12.4672 2.13951C7.89604 -2.40382 0.108965 0.759786 0.000956529 7.20547Z" fill="#009506"/>
<path d="M5.62083 21.9355H4.20975C2.78196 21.9355 1.62451 23.093 1.62451 24.5208V37.4993C1.62451 38.927 2.78196 40.0845 4.20975 40.0845H5.62083C7.04862 40.0845 8.20607 38.927 8.20607 37.4993V24.5208C8.20607 23.093 7.04862 21.9355 5.62083 21.9355Z" fill="#009506"/>
</svg>
