<svg width="143" height="48" viewBox="0 0 143 48" fill="none" xmlns="http://www.w3.org/2000/svg">
<path d="M141.559 47.1117H1.44033C0.644895 47.1117 0 46.4668 0 45.6714V1.44033C0 0.644895 0.644895 0 1.44033 0H141.56C142.355 0 143 0.644895 143 1.44033V45.6717C143 46.4668 142.355 47.1117 141.559 47.1117Z" fill="#E5F4E6"/>
<path d="M141.559 47.1117H127.898V0H141.559C142.354 0 142.999 0.644895 142.999 1.44033V45.6717C142.999 46.4668 142.354 47.1117 141.559 47.1117Z" fill="#DAAB03"/>
<path d="M130.901 36.4796C132.059 36.4796 132.998 35.5409 132.998 34.3826C132.998 33.2244 132.059 32.2856 130.901 32.2856H111.61C110.451 32.2856 109.513 33.2244 109.513 34.3826C109.513 35.5409 110.451 36.4796 111.61 36.4796H130.901Z" fill="#57565C"/>
<path d="M29.9578 17.1989C29.331 16.2253 28.034 15.9429 27.0598 16.5705L22.1802 19.7107V13.908C22.1802 12.7497 21.2415 11.811 20.0833 11.811C18.925 11.811 17.9863 12.7497 17.9863 13.908V19.7104L13.107 16.5702C12.1334 15.9432 10.8358 16.2245 10.209 17.1987C9.582 18.1726 9.86353 19.4702 10.8374 20.0966L16.2086 23.5532L10.8374 27.0098C9.86353 27.6365 9.582 28.9339 10.209 29.9078C10.6098 30.5306 11.2849 30.8702 11.9742 30.8702C12.3627 30.8702 12.7559 30.7624 13.107 30.5362L17.9863 27.396V33.1984C17.9863 34.3567 18.925 35.2954 20.0833 35.2954C21.2415 35.2954 22.1802 34.3567 22.1802 33.1984V27.3958L27.0598 30.5359C27.4109 30.7619 27.8039 30.8699 28.1926 30.8699C28.8817 30.8699 29.557 30.5303 29.9578 29.9075C30.5848 28.9336 30.3033 27.636 29.3294 27.0095L23.9582 23.5529L29.3294 20.0964C30.3033 19.4705 30.5848 18.1731 29.9578 17.1989Z" fill="#57565C"/>
<path d="M35.1856 29.908C35.5864 30.5308 36.2614 30.8704 36.9507 30.8704C37.3392 30.8704 37.7325 30.7626 38.0836 30.5364L42.9632 27.3963V33.1989C42.9632 34.3572 43.9019 35.2959 45.0601 35.2959C46.2184 35.2959 47.1571 34.3572 47.1571 33.1989V27.3965L52.0364 30.5367C52.3875 30.7626 52.7804 30.8707 53.1692 30.8707C53.8582 30.8707 54.5336 30.5311 54.9344 29.9082C55.5614 28.9343 55.2798 27.6367 54.3059 27.0103L48.9348 23.5537L54.3059 20.0971C55.2798 19.4704 55.5614 18.1731 54.9344 17.1991C54.3073 16.2255 53.0106 15.9432 52.0364 16.5707L47.1571 19.7109V13.9085C47.1571 12.7502 46.2184 11.8115 45.0601 11.8115C43.9019 11.8115 42.9632 12.7502 42.9632 13.9085V19.7111L38.0836 16.571C37.1097 15.944 35.812 16.2252 35.1856 17.1994C34.5586 18.1733 34.8401 19.4709 35.814 20.0974L41.1852 23.554L35.814 27.0105C34.8401 27.6367 34.5586 28.9341 35.1856 29.908Z" fill="#57565C"/>
<path d="M79.9131 17.1992C79.2861 16.2255 77.9894 15.9432 77.0152 16.5707L72.1356 19.7109V13.9085C72.1356 12.7502 71.1969 11.8115 70.0386 11.8115C68.8804 11.8115 67.9417 12.7502 67.9417 13.9085V19.7109L63.0621 16.5707C62.0885 15.9437 60.7903 16.225 60.1641 17.1992C59.5371 18.1731 59.8186 19.4707 60.7925 20.0971L66.1637 23.5537L60.7925 27.0103C59.8186 27.637 59.5371 28.9343 60.1641 29.9082C60.5649 30.5311 61.24 30.8707 61.9293 30.8707C62.3178 30.8707 62.711 30.7629 63.0621 30.5367L67.9417 27.3965V33.1989C67.9417 34.3572 68.8804 35.2959 70.0386 35.2959C71.1969 35.2959 72.1356 34.3572 72.1356 33.1989V27.3965L77.0152 30.5367C77.3662 30.7626 77.7592 30.8707 78.148 30.8707C78.837 30.8707 79.5126 30.5311 79.9131 29.9082C80.5402 28.9343 80.2586 27.6367 79.2847 27.0103L73.9136 23.5537L79.2847 20.0971C80.2586 19.4707 80.5402 18.1733 79.9131 17.1992Z" fill="#57565C"/>
<path d="M92.918 33.199C92.918 34.3572 93.8567 35.2959 95.0149 35.2959C96.1732 35.2959 97.1119 34.3572 97.1119 33.199V27.3963L101.991 30.5365C102.343 30.7624 102.735 30.8705 103.124 30.8705C103.813 30.8705 104.489 30.5309 104.889 29.908C105.516 28.9341 105.235 27.6365 104.261 27.0101L98.8899 23.5535L104.261 20.0969C105.235 19.4702 105.516 18.1728 104.889 17.1989C104.263 16.2253 102.966 15.9429 101.991 16.5705L97.1119 19.7107V13.908C97.1119 12.7497 96.1732 11.811 95.0149 11.811C93.8567 11.811 92.918 12.7497 92.918 13.908V19.7104L88.0386 16.5702C87.065 15.9432 85.7674 16.2245 85.1407 17.1987C84.5136 18.1726 84.7952 19.4702 85.7691 20.0966L91.1402 23.5532L85.7691 27.0098C84.7952 27.6365 84.5136 28.9339 85.1407 29.9078C85.5415 30.5306 86.2165 30.8702 86.9058 30.8702C87.2943 30.8702 87.6876 30.7624 88.0386 30.5362L92.918 27.3961V33.199Z" fill="#57565C"/>
</svg>
