<svg width="24" height="25" viewBox="0 0 24 25" fill="none" xmlns="http://www.w3.org/2000/svg">
<path d="M16.048 11.9123C15.8828 11.583 15.5467 11.3752 15.1786 11.3752H13.2357V1.66086C13.2357 1.12464 12.8015 0.689453 12.2643 0.689453C11.7271 0.689453 11.2929 1.12464 11.2929 1.66086V11.3751H9.35002C8.98186 11.3751 8.64572 11.583 8.4806 11.9123C8.3174 12.2416 8.35238 12.635 8.57291 12.9294L11.4872 16.8151C11.4998 16.8316 11.5192 16.8374 11.5329 16.853C11.597 16.9287 11.6727 16.987 11.7573 17.0404C11.7922 17.0618 11.8194 17.09 11.8573 17.1075C11.9817 17.1657 12.1176 17.2036 12.2643 17.2036C12.4111 17.2036 12.547 17.1657 12.6723 17.1075C12.7093 17.09 12.7374 17.0618 12.7714 17.0404C12.8559 16.987 12.9317 16.9287 12.9958 16.853C13.0084 16.8374 13.0288 16.8316 13.0415 16.8151L15.9558 12.9294C16.1772 12.6351 16.2122 12.2417 16.048 11.9123Z" fill="#009506"/>
<path d="M22.9483 15.7734C22.4111 15.7734 21.9769 16.183 21.9769 16.6877V19.4306C21.9769 20.9428 20.6693 22.1734 19.0626 22.1734H5.46262C3.85589 22.1734 2.54834 20.9428 2.54834 19.4306V16.6877C2.54834 16.183 2.11411 15.7734 1.57693 15.7734C1.0397 15.7734 0.605469 16.183 0.605469 16.6877V19.4306C0.605469 21.9512 2.78439 24.002 5.46262 24.002H19.0626C21.7408 24.002 23.9197 21.9512 23.9197 19.4306V16.6877C23.9197 16.183 23.4855 15.7734 22.9483 15.7734Z" fill="#009506"/>
</svg>
