<svg width="14" height="14" viewBox="0 0 14 14" fill="none" xmlns="http://www.w3.org/2000/svg">
<path d="M8.64233 6.28194C8.54988 6.09761 8.36175 5.98126 8.15568 5.98126H7.06817V0.543742C7.06817 0.243592 6.82512 0 6.52443 0C6.22375 0 5.98069 0.243592 5.98069 0.543742V5.98123H4.89318C4.68711 5.98123 4.49895 6.09759 4.40653 6.28192C4.31518 6.46625 4.33476 6.68647 4.4582 6.85122L6.08945 9.02622C6.09651 9.03547 6.10739 9.03873 6.11501 9.04742C6.1509 9.08983 6.19331 9.12246 6.24062 9.15236C6.2602 9.16431 6.27541 9.18009 6.29662 9.18988C6.36623 9.2225 6.44233 9.24371 6.52446 9.24371C6.60658 9.24371 6.68269 9.2225 6.75283 9.18988C6.7735 9.18009 6.78925 9.16431 6.80829 9.15236C6.8556 9.12246 6.89801 9.08983 6.9339 9.04742C6.94096 9.03873 6.95238 9.03547 6.95947 9.02622L8.59071 6.85122C8.71466 6.68649 8.73424 6.46628 8.64233 6.28194Z" fill="white"/>
<path d="M12.5063 8.44336C12.2056 8.44336 11.9625 8.67262 11.9625 8.95512V10.4904C11.9625 11.3369 11.2306 12.0257 10.3313 12.0257H2.71876C1.8194 12.0257 1.08751 11.3369 1.08751 10.4904V8.95512C1.08751 8.67262 0.844452 8.44336 0.543767 8.44336C0.243056 8.44336 0 8.67262 0 8.95512V10.4904C0 11.9013 1.21964 13.0492 2.71876 13.0492H10.3313C11.8304 13.0492 13.05 11.9013 13.05 10.4904V8.95512C13.05 8.67262 12.8069 8.44336 12.5063 8.44336Z" fill="white"/>
</svg>
