<svg width="22" height="22" viewBox="0 0 22 22" fill="none" xmlns="http://www.w3.org/2000/svg">
<path d="M21.1663 0.26015C21.0457 0.14016 20.8934 0.057084 20.7272 0.0206889C20.5611 -0.0157062 20.388 -0.00390723 20.2283 0.0546987L0.576471 7.20082C0.40699 7.26511 0.261077 7.37943 0.158111 7.52861C0.0551453 7.67779 0 7.85476 0 8.03603C0 8.21729 0.0551453 8.39427 0.158111 8.54344C0.261077 8.69262 0.40699 8.80695 0.576471 8.87123L8.24963 11.9351L13.9129 6.25396L15.1724 7.51347L9.48233 13.2036L12.5552 20.8767C12.6214 21.0429 12.7359 21.1854 12.8841 21.2858C13.0322 21.3861 13.207 21.4397 13.3859 21.4395C13.5664 21.4358 13.7416 21.3775 13.8883 21.2722C14.035 21.167 14.1464 21.0197 14.2077 20.8499L21.3538 1.19808C21.4147 1.04004 21.4294 0.867955 21.3962 0.701891C21.363 0.535827 21.2832 0.382626 21.1663 0.26015Z" fill="#009506"/>
</svg>
