<svg width="24" height="21" viewBox="0 0 24 21" fill="none" xmlns="http://www.w3.org/2000/svg">
<path d="M23.7513 7.34417L17.8251 1.13284C17.4945 0.786363 16.9584 0.786467 16.6279 1.13305C16.4692 1.29942 16.38 1.52496 16.38 1.76023V4.42222H10.4538C9.98626 4.42222 9.60723 4.81949 9.60723 5.30957C9.60723 5.79964 9.98626 6.19691 10.4538 6.19691H17.2266C17.6942 6.19691 18.0732 5.79964 18.0732 5.30957V3.90219L21.9557 7.97151L18.0732 12.0408V10.6335C18.0732 10.1434 17.6942 9.74615 17.2266 9.74615H7.91406V7.08416C7.91396 6.59408 7.53483 6.19691 7.0673 6.19702C6.84289 6.19707 6.62766 6.2905 6.46892 6.45682L0.54281 12.6682C0.212292 13.0147 0.212292 13.5764 0.54281 13.9228L6.46897 20.1342C6.6277 20.3006 6.84299 20.3941 7.0675 20.3942C7.17877 20.3945 7.28904 20.3716 7.39172 20.3267C7.708 20.1893 7.91416 19.8657 7.91406 19.5068V16.8448H13.8402C14.3078 16.8448 14.6868 16.4476 14.6868 15.9575C14.6868 15.4674 14.3078 15.0701 13.8402 15.0701H7.0675C6.59993 15.0701 6.22089 15.4674 6.22089 15.9575V17.3648L2.33841 13.2955L6.22089 9.22618V10.6335C6.22089 11.1236 6.59993 11.5208 7.0675 11.5208H16.38V14.1828C16.3801 14.6729 16.7592 15.0701 17.2268 15.07C17.4512 15.0699 17.6664 14.9765 17.8251 14.8102L23.7513 8.59884C24.0818 8.25232 24.0818 7.69065 23.7513 7.34417Z" fill="#009506"/>
</svg>
