<svg width="21" height="17" viewBox="0 0 21 17" fill="none" xmlns="http://www.w3.org/2000/svg">
<path d="M20.4209 5.37505L15.2617 0.215788C14.9738 -0.0720013 14.5071 -0.0719149 14.2193 0.215961C14.0812 0.354155 14.0036 0.541494 14.0035 0.736909V2.94802H8.84426C8.43719 2.94802 8.10721 3.278 8.10721 3.68507C8.10721 4.09213 8.43719 4.42211 8.84426 4.42211H14.7406C15.1476 4.42211 15.4776 4.09213 15.4776 3.68507V2.51607L18.8577 5.89613L15.4776 9.27618V8.10723C15.4776 7.70016 15.1476 7.37018 14.7406 7.37018H6.63316V5.15908C6.63307 4.75201 6.303 4.42211 5.89598 4.4222C5.7006 4.42224 5.51322 4.49985 5.37503 4.638L0.21581 9.79726C-0.0719365 10.0851 -0.0719365 10.5516 0.21581 10.8394L5.37507 15.9987C5.51327 16.1369 5.70069 16.2146 5.89615 16.2147C5.99301 16.215 6.08902 16.1959 6.17841 16.1586C6.45376 16.0445 6.63324 15.7757 6.63316 15.4776V13.2665H11.7924C12.1995 13.2665 12.5295 12.9365 12.5295 12.5294C12.5295 12.1224 12.1995 11.7924 11.7924 11.7924H5.89615C5.48908 11.7924 5.1591 12.1224 5.1591 12.5294V13.6984L1.77904 10.3183L5.1591 6.93828V8.10723C5.1591 8.5143 5.48908 8.84428 5.89615 8.84428H14.0035V11.0554C14.0036 11.4625 14.3337 11.7924 14.7407 11.7923C14.9361 11.7922 15.1235 11.7146 15.2617 11.5765L20.4209 6.41721C20.7086 6.12937 20.7086 5.66284 20.4209 5.37505Z" fill="white"/>
</svg>
