<svg width="38" height="38" viewBox="0 0 38 38" fill="none" xmlns="http://www.w3.org/2000/svg">
<path fill-rule="evenodd" clip-rule="evenodd" d="M26.1366 14.2734C26.1366 16.0713 25.4223 17.7956 24.151 19.067C22.8796 20.3383 21.1553 21.0526 19.3573 21.0526C17.5594 21.0526 15.8351 20.3383 14.5637 19.067C13.2924 17.7956 12.5781 16.0713 12.5781 14.2734C12.5781 12.4754 13.2924 10.7511 14.5637 9.47973C15.8351 8.20838 17.5594 7.49414 19.3573 7.49414C21.1553 7.49414 22.8796 8.20838 24.151 9.47973C25.4223 10.7511 26.1366 12.4754 26.1366 14.2734ZM22.747 14.2734C22.747 15.1723 22.3898 16.0345 21.7542 16.6702C21.1185 17.3059 20.2563 17.663 19.3573 17.663C18.4584 17.663 17.5962 17.3059 16.9605 16.6702C16.3249 16.0345 15.9677 15.1723 15.9677 14.2734C15.9677 13.3744 16.3249 12.5122 16.9605 11.8765C17.5962 11.2409 18.4584 10.8838 19.3573 10.8838C20.2563 10.8838 21.1185 11.2409 21.7542 11.8765C22.3898 12.5122 22.747 13.3744 22.747 14.2734Z" fill="#009506"/>
<path fill-rule="evenodd" clip-rule="evenodd" d="M19.3567 0.714844C9.06078 0.714844 0.713867 9.06176 0.713867 19.3577C0.713867 29.6536 9.06078 38.0006 19.3567 38.0006C29.6527 38.0006 37.9996 29.6536 37.9996 19.3577C37.9996 9.06176 29.6527 0.714844 19.3567 0.714844ZM4.10348 19.3577C4.10348 22.8998 5.31187 26.1606 7.33717 28.7503C8.7595 26.8825 10.5944 25.3687 12.6986 24.3274C14.8027 23.2861 17.1191 22.7453 19.4669 22.7473C21.7842 22.7451 24.0715 23.2719 26.1545 24.2875C28.2374 25.3031 30.0611 26.7808 31.4864 28.6079C32.9549 26.682 33.9436 24.434 34.3708 22.0501C34.798 19.6661 34.6514 17.2147 33.9431 14.8986C33.2347 12.5826 31.9851 10.4685 30.2975 8.73133C28.6099 6.99414 26.533 5.68377 24.2384 4.90865C21.9439 4.13353 19.4977 3.91594 17.1024 4.27389C14.7071 4.63183 12.4314 5.55502 10.4637 6.96707C8.49598 8.37912 6.89281 10.2394 5.78681 12.3941C4.68081 14.5487 4.10378 16.9358 4.10348 19.3577ZM19.3567 34.6109C15.8552 34.6162 12.4593 33.4116 9.74379 31.201C10.8368 29.6362 12.2917 28.3587 13.9845 27.477C15.6774 26.5953 17.5582 26.1356 19.4669 26.1369C21.3518 26.1354 23.2098 26.5836 24.8867 27.4443C26.5637 28.305 28.011 29.5534 29.1086 31.0858C26.372 33.3681 22.9202 34.6159 19.3567 34.6109Z" fill="#009506"/>
</svg>
