<svg width="133" height="132" viewBox="0 0 133 132" fill="none" xmlns="http://www.w3.org/2000/svg">
<g opacity="0.3">
<path d="M110.033 63.8008H116.633V68.2008H110.033V63.8008Z" fill="#009506"/>
<path d="M123.233 26.4004C121.288 26.4077 119.4 27.0593 117.864 28.2535C116.329 29.4476 115.232 31.1169 114.746 33.0004H107.833V37.4004H114.746C115.16 38.99 116.012 40.4316 117.204 41.5616C118.396 42.6915 119.882 43.4644 121.491 43.7925C123.101 44.1207 124.77 43.9909 126.31 43.418C127.849 42.8451 129.198 41.852 130.201 40.5514C131.205 39.2508 131.823 37.6949 131.987 36.0604C132.151 34.4258 131.853 32.7781 131.127 31.3044C130.402 29.8306 129.277 28.5899 127.882 27.723C126.486 26.8562 124.876 26.398 123.233 26.4004ZM123.233 39.6004C122.363 39.6004 121.512 39.3423 120.789 38.8589C120.065 38.3754 119.501 37.6882 119.168 36.8842C118.835 36.0802 118.748 35.1955 118.918 34.342C119.087 33.4885 119.507 32.7045 120.122 32.0891C120.737 31.4738 121.521 31.0547 122.375 30.8849C123.228 30.7152 124.113 30.8023 124.917 31.1353C125.721 31.4684 126.408 32.0323 126.892 32.7559C127.375 33.4795 127.633 34.3302 127.633 35.2004C127.633 36.3674 127.17 37.4865 126.344 38.3117C125.519 39.1368 124.4 39.6004 123.233 39.6004Z" fill="#009506"/>
<path d="M66.0332 17.6C64.2927 17.6 62.5913 17.0839 61.1441 16.1169C59.697 15.15 58.5691 13.7756 57.903 12.1676C57.237 10.5596 57.0627 8.79024 57.4022 7.08321C57.7418 5.37618 58.5799 3.80817 59.8106 2.57746C61.0413 1.34676 62.6093 0.508644 64.3164 0.169094C66.0234 -0.170456 67.7928 0.00381287 69.4008 0.669864C71.0088 1.33592 72.3831 2.46383 73.3501 3.91099C74.3171 5.35814 74.8332 7.05953 74.8332 8.8C74.8332 11.1339 73.906 13.3722 72.2557 15.0225C70.6054 16.6729 68.3671 17.6 66.0332 17.6ZM66.0332 4.4C65.1629 4.4 64.3122 4.65806 63.5887 5.14154C62.8651 5.62502 62.3011 6.3122 61.9681 7.1162C61.6351 7.92019 61.5479 8.80489 61.7177 9.6584C61.8875 10.5119 62.3065 11.2959 62.9219 11.9113C63.5372 12.5266 64.3212 12.9457 65.1748 13.1155C66.0283 13.2852 66.913 13.1981 67.717 12.8651C68.521 12.5321 69.2082 11.9681 69.6916 11.2445C70.1751 10.5209 70.4332 9.67024 70.4332 8.8C70.4332 7.63305 69.9696 6.51389 69.1444 5.68873C68.3193 4.86357 67.2001 4.4 66.0332 4.4Z" fill="#009506"/>
<path d="M123.232 17.6C121.491 17.6 119.79 17.0839 118.343 16.1169C116.896 15.15 115.768 13.7756 115.102 12.1676C114.436 10.5596 114.261 8.79024 114.601 7.08321C114.941 5.37618 115.779 3.80817 117.009 2.57746C118.24 1.34676 119.808 0.508644 121.515 0.169094C123.222 -0.170456 124.992 0.00381287 126.6 0.669864C128.208 1.33592 129.582 2.46383 130.549 3.91099C131.516 5.35814 132.032 7.05953 132.032 8.8C132.032 11.1339 131.105 13.3722 129.454 15.0225C127.804 16.6729 125.566 17.6 123.232 17.6ZM123.232 4.4C122.362 4.4 121.511 4.65806 120.787 5.14154C120.064 5.62502 119.5 6.3122 119.167 7.1162C118.834 7.92019 118.747 8.80489 118.916 9.6584C119.086 10.5119 119.505 11.2959 120.121 11.9113C120.736 12.5266 121.52 12.9457 122.373 13.1155C123.227 13.2852 124.112 13.1981 124.916 12.8651C125.72 12.5321 126.407 11.9681 126.89 11.2445C127.374 10.5209 127.632 9.67024 127.632 8.8C127.632 7.63305 127.168 6.51389 126.343 5.68873C125.518 4.86357 124.399 4.4 123.232 4.4Z" fill="#009506"/>
<path d="M123.233 88C121.288 88.0073 119.4 88.6589 117.864 89.8531C116.329 91.0472 115.232 92.7165 114.746 94.6H107.833V99H114.746C115.16 100.59 116.012 102.031 117.204 103.161C118.396 104.291 119.882 105.064 121.491 105.392C123.101 105.72 124.77 105.591 126.31 105.018C127.849 104.445 129.198 103.452 130.201 102.151C131.205 100.85 131.823 99.2945 131.987 97.66C132.151 96.0254 131.853 94.3777 131.127 92.904C130.402 91.4302 129.277 90.1895 127.882 89.3226C126.486 88.4558 124.876 87.9976 123.233 88ZM123.233 101.2C122.363 101.2 121.512 100.942 120.789 100.458C120.065 99.975 119.501 99.2878 119.168 98.4838C118.835 97.6798 118.748 96.7951 118.918 95.9416C119.087 95.0881 119.507 94.3041 120.122 93.6887C120.737 93.0734 121.521 92.6543 122.375 92.4846C123.228 92.3148 124.113 92.4019 124.917 92.7349C125.721 93.068 126.408 93.6319 126.892 94.3555C127.375 95.0791 127.633 95.9298 127.633 96.8C127.633 97.967 127.17 99.0861 126.344 99.9113C125.519 100.736 124.4 101.2 123.233 101.2Z" fill="#009506"/>
<path d="M101.233 6.59961H110.033V10.9996H101.233V6.59961Z" fill="#009506"/>
<path d="M79.2332 6.59961H88.0332V10.9996H79.2332V6.59961Z" fill="#009506"/>
<path d="M92.4319 6.59961H96.8319V10.9996H92.4319V6.59961Z" fill="#009506"/>
<path d="M8.83443 17.6C7.09395 17.6 5.39256 17.0839 3.94541 16.1169C2.49826 15.15 1.37034 13.7756 0.704288 12.1676C0.0382367 10.5596 -0.136033 8.79024 0.203517 7.08321C0.543067 5.37618 1.38119 3.80817 2.61189 2.57746C3.84259 1.34676 5.4106 0.508644 7.11763 0.169094C8.82467 -0.170456 10.5941 0.00381287 12.202 0.669864C13.81 1.33592 15.1844 2.46383 16.1514 3.91099C17.1183 5.35814 17.6344 7.05953 17.6344 8.8C17.6344 11.1339 16.7073 13.3722 15.057 15.0225C13.4066 16.6729 11.1683 17.6 8.83443 17.6ZM8.83443 4.4C7.96419 4.4 7.1135 4.65806 6.38992 5.14154C5.66634 5.62502 5.10238 6.3122 4.76936 7.1162C4.43633 7.92019 4.3492 8.80489 4.51897 9.6584C4.68875 10.5119 5.10781 11.2959 5.72316 11.9113C6.33851 12.5266 7.12251 12.9457 7.97603 13.1155C8.82955 13.2852 9.71424 13.1981 10.5182 12.8651C11.3222 12.5321 12.0094 11.9681 12.4929 11.2445C12.9764 10.5209 13.2344 9.67024 13.2344 8.8C13.2344 7.63305 12.7709 6.51389 11.9457 5.68873C11.1205 4.86357 10.0014 4.4 8.83443 4.4Z" fill="#009506"/>
<path d="M22.0332 6.59961H30.8332V10.9996H22.0332V6.59961Z" fill="#009506"/>
<path d="M44.0332 6.59961H52.8332V10.9996H44.0332V6.59961Z" fill="#009506"/>
<path d="M35.2332 6.59961H39.6332V10.9996H35.2332V6.59961Z" fill="#009506"/>
<path d="M66.0332 132C64.2927 132 62.5913 131.484 61.1441 130.517C59.697 129.55 58.5691 128.176 57.903 126.568C57.237 124.96 57.0627 123.191 57.4022 121.484C57.7418 119.777 58.5799 118.209 59.8106 116.978C61.0413 115.747 62.6093 114.909 64.3164 114.569C66.0234 114.23 67.7928 114.404 69.4008 115.07C71.0088 115.736 72.3831 116.864 73.3501 118.311C74.3171 119.759 74.8332 121.46 74.8332 123.2C74.8332 125.534 73.906 127.773 72.2557 129.423C70.6054 131.073 68.3671 132 66.0332 132ZM66.0332 118.8C65.1629 118.8 64.3122 119.058 63.5887 119.542C62.8651 120.025 62.3011 120.713 61.9681 121.517C61.6351 122.321 61.5479 123.205 61.7177 124.059C61.8875 124.912 62.3065 125.696 62.9219 126.312C63.5372 126.927 64.3212 127.346 65.1748 127.516C66.0283 127.686 66.913 127.598 67.717 127.265C68.521 126.932 69.2082 126.368 69.6916 125.645C70.1751 124.921 70.4332 124.071 70.4332 123.2C70.4332 122.033 69.9696 120.914 69.1444 120.089C68.3193 119.264 67.2001 118.8 66.0332 118.8Z" fill="#009506"/>
<path d="M123.232 132C121.491 132 119.79 131.484 118.343 130.517C116.896 129.55 115.768 128.176 115.102 126.568C114.436 124.96 114.261 123.191 114.601 121.484C114.941 119.777 115.779 118.209 117.009 116.978C118.24 115.747 119.808 114.909 121.515 114.569C123.222 114.23 124.992 114.404 126.6 115.07C128.208 115.736 129.582 116.864 130.549 118.311C131.516 119.759 132.032 121.46 132.032 123.2C132.032 125.534 131.105 127.773 129.454 129.423C127.804 131.073 125.566 132 123.232 132ZM123.232 118.8C122.362 118.8 121.511 119.058 120.787 119.542C120.064 120.025 119.5 120.713 119.167 121.517C118.834 122.321 118.747 123.205 118.916 124.059C119.086 124.912 119.505 125.696 120.121 126.312C120.736 126.927 121.52 127.346 122.373 127.516C123.227 127.686 124.112 127.598 124.916 127.265C125.72 126.932 126.407 126.368 126.89 125.645C127.374 124.921 127.632 124.071 127.632 123.2C127.632 122.033 127.168 120.914 126.343 120.089C125.518 119.264 124.399 118.8 123.232 118.8Z" fill="#009506"/>
<path d="M101.233 121H110.033V125.4H101.233V121Z" fill="#009506"/>
<path d="M79.2332 121H88.0332V125.4H79.2332V121Z" fill="#009506"/>
<path d="M92.4319 121H96.8319V125.4H92.4319V121Z" fill="#009506"/>
<path d="M8.83321 132C7.09273 132 5.39134 131.484 3.94419 130.517C2.49704 129.55 1.36912 128.176 0.703067 126.568C0.037016 124.96 -0.137253 123.191 0.202297 121.484C0.541847 119.777 1.37997 118.209 2.61067 116.978C3.84137 115.747 5.40938 114.909 7.11641 114.569C8.82345 114.23 10.5928 114.404 12.2008 115.07C13.8088 115.736 15.1832 116.864 16.1501 118.311C17.1171 119.759 17.6332 121.46 17.6332 123.2C17.6332 125.534 16.7061 127.773 15.0557 129.423C13.4054 131.073 11.1671 132 8.83321 132ZM8.83321 118.8C7.96297 118.8 7.11228 119.058 6.3887 119.542C5.66512 120.025 5.10116 120.713 4.76814 121.517C4.43511 122.321 4.34798 123.205 4.51775 124.059C4.68753 124.912 5.10659 125.696 5.72194 126.312C6.33729 126.927 7.12129 127.346 7.97481 127.516C8.82833 127.686 9.71302 127.598 10.517 127.265C11.321 126.932 12.0082 126.368 12.4917 125.645C12.9752 124.921 13.2332 124.071 13.2332 123.2C13.2332 122.033 12.7696 120.914 11.9445 120.089C11.1193 119.264 10.0002 118.8 8.83321 118.8Z" fill="#009506"/>
<path d="M22.0332 121H30.8332V125.4H22.0332V121Z" fill="#009506"/>
<path d="M44.0332 121H52.8332V125.4H44.0332V121Z" fill="#009506"/>
<path d="M35.2332 121H39.6332V125.4H35.2332V121Z" fill="#009506"/>
<path d="M99.0332 94.5996H103.433V98.9996H99.0332V94.5996Z" fill="#009506"/>
<path d="M99.0332 33H103.433V37.4H99.0332V33Z" fill="#009506"/>
<path d="M101.233 63.8008H105.633V68.2008H101.233V63.8008Z" fill="#009506"/>
<path d="M15.4319 63.8008H22.0319V68.2008H15.4319V63.8008Z" fill="#009506"/>
<path d="M24.233 33.0004H17.3206C16.7851 30.9266 15.5117 29.1192 13.7389 27.9171C11.9662 26.715 9.81595 26.2007 7.69116 26.4706C5.56637 26.7404 3.61295 27.776 2.19705 29.3831C0.781159 30.9902 0 33.0586 0 35.2004C0 37.3423 0.781159 39.4106 2.19705 41.0177C3.61295 42.6248 5.56637 43.6604 7.69116 43.9303C9.81595 44.2002 11.9662 43.6858 13.7389 42.4837C15.5117 41.2816 16.7851 39.4743 17.3206 37.4004H24.233V33.0004ZM8.83296 39.6004C7.96273 39.6004 7.11203 39.3424 6.38845 38.8589C5.66488 38.3754 5.10092 37.6882 4.76789 36.8842C4.43487 36.0802 4.34773 35.1955 4.51751 34.342C4.68728 33.4885 5.10634 32.7045 5.72169 32.0891C6.33704 31.4738 7.12105 31.0547 7.97457 30.885C8.82808 30.7152 9.71278 30.8023 10.5168 31.1353C11.3208 31.4684 12.008 32.0323 12.4914 32.7559C12.9749 33.4795 13.233 34.3302 13.233 35.2004C13.233 36.3674 12.7694 37.4865 11.9442 38.3117C11.1191 39.1368 9.99992 39.6004 8.83296 39.6004Z" fill="#009506"/>
<path d="M24.233 94.6H17.3206C16.7851 92.5262 15.5117 90.7188 13.7389 89.5167C11.9662 88.3146 9.81595 87.8003 7.69116 88.0702C5.56637 88.34 3.61295 89.3756 2.19705 90.9827C0.781159 92.5898 0 94.6582 0 96.8C0 98.9419 0.781159 101.01 2.19705 102.617C3.61295 104.224 5.56637 105.26 7.69116 105.53C9.81595 105.8 11.9662 105.285 13.7389 104.083C15.5117 102.881 16.7851 101.074 17.3206 99H24.233V94.6ZM8.83296 101.2C7.96273 101.2 7.11203 100.942 6.38845 100.458C5.66488 99.975 5.10092 99.2878 4.76789 98.4838C4.43487 97.6798 4.34773 96.7951 4.51751 95.9416C4.68728 95.0881 5.10634 94.3041 5.72169 93.6888C6.33704 93.0734 7.12105 92.6543 7.97457 92.4846C8.82808 92.3148 9.71278 92.4019 10.5168 92.735C11.3208 93.068 12.008 93.6319 12.4914 94.3555C12.9749 95.0791 13.233 95.9298 13.233 96.8C13.233 97.967 12.7694 99.0861 11.9442 99.9113C11.1191 100.736 9.99992 101.2 8.83296 101.2Z" fill="#009506"/>
<path d="M28.6332 94.5996H33.0332V98.9996H28.6332V94.5996Z" fill="#009506"/>
<path d="M28.6332 33H33.0332V37.4H28.6332V33Z" fill="#009506"/>
<path d="M26.4319 63.8008H30.8319V68.2008H26.4319V63.8008Z" fill="#009506"/>
<path d="M121.033 63.8008H132.033V68.2008H121.033V63.8008Z" fill="#009506"/>
<path d="M0.0332031 63.8008H11.0332V68.2008H0.0332031V63.8008Z" fill="#009506"/>
</g>
<path d="M103.563 106.765H32.4612C27.9603 106.765 24.2989 103.104 24.2989 98.6028V93.1613H21.5782C20.0743 93.1613 18.8574 91.9444 18.8574 90.4405V74.116C18.8574 72.6122 20.0743 71.3953 21.5782 71.3953H24.2989V60.5123H21.5782C20.0743 60.5123 18.8574 59.2954 18.8574 57.7915V41.4671C18.8574 39.9632 20.0743 38.7463 21.5782 38.7463H24.2989V33.3048C24.2989 28.804 27.9603 25.1426 32.4612 25.1426H103.563C108.064 25.1426 111.726 28.804 111.726 33.3048V98.6028C111.726 103.104 108.064 106.765 103.563 106.765Z" fill="#E2BC07"/>
<path d="M103.563 25.1426H68.0122V106.765H103.563C108.064 106.765 111.726 103.104 111.726 98.6028V33.3048C111.726 28.804 108.064 25.1426 103.563 25.1426Z" fill="#DAAB02"/>
<path d="M98.1213 74.1155C96.6174 74.1155 95.4005 72.8986 95.4005 71.3948V60.5118C95.4005 59.0079 96.6174 57.791 98.1213 57.791C99.6251 57.791 100.842 59.0079 100.842 60.5118V71.3948C100.842 72.8986 99.6251 74.1155 98.1213 74.1155Z" fill="#E3E7EA"/>
<path d="M79.3505 73.4456C80.7763 71.2947 81.6169 68.7234 81.6169 65.9555C81.6169 63.1876 80.7763 60.6163 79.3505 58.4655L91.7029 46.1131C92.7656 45.0504 92.7656 43.3285 91.7029 42.2658C90.6401 41.2031 88.9183 41.2031 87.8555 42.2658L75.5032 54.6182C73.3523 53.1923 70.781 52.3518 68.0131 52.3518C65.2452 52.3518 62.6739 53.1923 60.5231 54.6182L48.1707 42.2658C47.108 41.2031 45.3861 41.2031 44.3234 42.2658C43.2607 43.3285 43.2607 45.0504 44.3234 46.1131L56.6758 58.4655C55.2499 60.6163 54.4094 63.1876 54.4094 65.9555C54.4094 68.7234 55.2499 71.2947 56.6758 73.4456L44.3234 85.7979C43.2607 86.8607 43.2607 88.5825 44.3234 89.6452C45.3861 90.708 47.108 90.708 48.1707 89.6452L60.5231 77.2929C62.6739 78.7187 65.2452 79.5593 68.0131 79.5593C70.781 79.5593 73.3523 78.7187 75.5032 77.2929L87.8555 89.6452C88.9183 90.708 90.6401 90.708 91.7029 89.6452C92.7656 88.5825 92.7656 86.8607 91.7029 85.7979L79.3505 73.4456ZM59.8509 65.9555C59.8509 61.4547 63.5123 57.7933 68.0131 57.7933C72.514 57.7933 76.1754 61.4547 76.1754 65.9555C76.1754 70.4564 72.514 74.1178 68.0131 74.1178C63.5123 74.1178 59.8509 70.4564 59.8509 65.9555Z" fill="#FFF5F5"/>
<path d="M76.1747 65.9555C76.1747 70.4564 72.5133 74.1178 68.0125 74.1178V79.5593C70.7804 79.5593 73.3516 78.7187 75.5025 77.2929L87.8549 89.6452C88.9176 90.708 90.6395 90.708 91.7022 89.6452C92.7649 88.5825 92.7649 86.8607 91.7022 85.7979L79.3498 73.4456C80.7757 71.2947 81.6162 68.7234 81.6162 65.9555C81.6162 63.1876 80.7757 60.6163 79.3498 58.4655L91.7022 46.1131C92.7649 45.0504 92.7649 43.3285 91.7022 42.2658C90.6395 41.2031 88.9176 41.2031 87.8549 42.2658L75.5025 54.6182C73.3516 53.1923 70.7804 52.3518 68.0125 52.3518V57.7933C72.5133 57.7933 76.1747 61.4547 76.1747 65.9555Z" fill="#E3E7EA"/>
</svg>
