<svg width="182" height="148" viewBox="0 0 182 148" fill="none" xmlns="http://www.w3.org/2000/svg">
<path d="M0.317871 55.3281C0.317871 49.8053 4.79502 45.3281 10.3179 45.3281H148.964C154.486 45.3281 158.964 49.8053 158.964 55.3281V137.315C158.964 142.838 154.486 147.315 148.964 147.315H10.3179C4.79501 147.315 0.317871 142.838 0.317871 137.315V55.3281Z" fill="#009506"/>
<path d="M158.963 124.649H130.634C114.988 124.649 102.304 111.966 102.304 96.3198C102.304 80.6737 114.988 67.9902 130.634 67.9902H158.963V124.649Z" fill="#DAAB03"/>
<path d="M119.303 101.986C122.432 101.986 124.969 99.4494 124.969 96.3202C124.969 93.191 122.432 90.6543 119.303 90.6543C116.173 90.6543 113.637 93.191 113.637 96.3202C113.637 99.4494 116.173 101.986 119.303 101.986Z" fill="#C8FA64"/>
<path d="M136.3 45.3274H22.9816L79.6408 0L136.3 45.3274Z" fill="#C0FA4B"/>
<path d="M158.964 67.9902H181.627V124.649H158.964V67.9902Z" fill="#DAAB03"/>
</svg>
