<svg width="226" height="148" viewBox="0 0 226 148" fill="none" xmlns="http://www.w3.org/2000/svg">
<ellipse opacity="0.78" cx="67.5" cy="74" rx="67.5" ry="68" fill="#FFF5BE"/>
<path d="M44.3179 55.3281C44.3179 49.8053 48.795 45.3281 54.3179 45.3281H192.964C198.486 45.3281 202.964 49.8053 202.964 55.3281V137.315C202.964 142.838 198.486 147.315 192.964 147.315H54.3179C48.795 147.315 44.3179 142.838 44.3179 137.315V55.3281Z" fill="#009506"/>
<path d="M202.963 124.649H174.634C158.988 124.649 146.304 111.966 146.304 96.3198C146.304 80.6737 158.988 67.9902 174.634 67.9902H202.963V124.649Z" fill="#DAAB03"/>
<path d="M163.303 101.986C166.432 101.986 168.969 99.4494 168.969 96.3202C168.969 93.191 166.432 90.6543 163.303 90.6543C160.173 90.6543 157.637 93.191 157.637 96.3202C157.637 99.4494 160.173 101.986 163.303 101.986Z" fill="#C8FA64"/>
<path d="M180.3 45.3274H66.9816L123.641 0L180.3 45.3274Z" fill="#C0FA4B"/>
<path d="M202.964 67.9902H225.627V124.649H202.964V67.9902Z" fill="#DAAB03"/>
</svg>