<svg width="27" height="27" viewBox="0 0 27 27" fill="none" xmlns="http://www.w3.org/2000/svg">
<path d="M1.53853e-06 22.7813L1.00375e-06 16.6641C9.52828e-07 16.0816 0.472184 15.6094 1.05469 15.6094C1.63719 15.6094 2.10938 16.0816 2.10938 16.6641L2.10938 22.7813C2.10938 23.9444 3.05564 24.8906 4.21875 24.8906L22.7812 24.8906C23.9444 24.8906 24.8906 23.9444 24.8906 22.7812L24.8906 11.3906C24.8906 10.2275 23.9444 9.28125 22.7812 9.28125L17.7187 9.28125C17.1362 9.28125 16.6641 8.80907 16.6641 8.22656C16.6641 7.64406 17.1362 7.17187 17.7187 7.17187L22.7812 7.17187C25.1075 7.17187 27 9.06441 27 11.3906L27 22.7812C27 25.1075 25.1075 27 22.7812 27L4.21875 27C1.89253 27 1.7419e-06 25.1075 1.53853e-06 22.7813ZM1.05469 12.4453C1.63719 12.4453 2.10938 11.9731 2.10938 11.3906C2.10938 10.2275 3.05564 9.28125 4.21875 9.28125L9.28125 9.28125C9.86375 9.28125 10.3359 8.80907 10.3359 8.22656C10.3359 7.64406 9.86375 7.17187 9.28125 7.17187L4.21875 7.17188C1.89253 7.17188 3.39369e-07 9.06441 5.42734e-07 11.3906C5.93658e-07 11.9731 0.472184 12.4453 1.05469 12.4453ZM4.06055 17.1387C4.06055 17.7212 4.53273 18.1934 5.11524 18.1934C5.69774 18.1934 6.16992 17.7212 6.16992 17.1387C6.16992 16.5562 5.69774 16.084 5.11524 16.084C4.53273 16.084 4.06055 16.5562 4.06055 17.1387ZM22.9395 17.1387C22.9395 16.5562 22.4673 16.084 21.8848 16.084C21.3023 16.084 20.8301 16.5562 20.8301 17.1387C20.8301 17.7212 21.3023 18.1934 21.8848 18.1934C22.4673 18.1934 22.9395 17.7212 22.9395 17.1387ZM10.4972 4.59981L12.4453 2.67469L12.4453 12.4453C12.4453 13.0278 12.9175 13.5 13.5 13.5C14.0825 13.5 14.5547 13.0278 14.5547 12.4453L14.5547 2.77894L16.3973 4.59981C16.8117 5.00924 17.4794 5.00523 17.8889 4.59095C18.2983 4.17661 18.2943 3.50884 17.88 3.09941L15.6868 0.932132C15.0885 0.330958 14.2934 -7.96501e-07 13.4473 -7.22531e-07C12.6011 -6.48561e-07 11.8061 0.330959 11.2077 0.932132L9.01452 3.09941C8.60024 3.50884 8.59623 4.17661 9.00566 4.59095C9.41514 5.00528 10.0829 5.00929 10.4972 4.59981ZM10.5905 13.6152C10.4139 13.5015 10.2161 13.4471 10.0205 13.4472C9.67391 13.4472 9.3344 13.6179 9.1328 13.9309C8.50542 14.9052 8.17383 16.0166 8.17383 17.1451C8.17383 20.2855 10.5632 22.8404 13.5 22.8404C16.4368 22.8404 18.8262 20.2855 18.8262 17.1451C18.8262 15.9372 18.5204 14.8544 17.9174 13.927C17.5999 13.4387 16.9466 13.3002 16.4583 13.6178C15.97 13.9353 15.8315 14.5885 16.149 15.0769C16.5257 15.6564 16.7168 16.3521 16.7168 17.1451C16.7168 19.1224 15.2738 20.731 13.5 20.731C11.7262 20.731 10.2832 19.1224 10.2832 17.1451C10.2832 16.4225 10.4986 15.706 10.9063 15.073C11.2216 14.5832 11.0803 13.9306 10.5905 13.6152Z" fill="#009706"/>
</svg>
