<svg width="17" height="17" viewBox="0 0 17 17" fill="none" xmlns="http://www.w3.org/2000/svg">
<path d="M1.67513e-06 14.3438L1.33842e-06 10.4922C1.30635e-06 10.1254 0.297302 9.82813 0.664064 9.82813C1.03082 9.82813 1.32813 10.1254 1.32813 10.4922L1.32813 14.3438C1.32813 15.0761 1.92392 15.6719 2.65625 15.6719L14.3438 15.6719C15.0761 15.6719 15.6719 15.0761 15.6719 14.3437L15.6719 7.17187C15.6719 6.43955 15.0761 5.84375 14.3437 5.84375L11.1562 5.84375C10.7895 5.84375 10.4922 5.54645 10.4922 5.17969C10.4922 4.81292 10.7895 4.51562 11.1562 4.51562L14.3437 4.51562C15.8084 4.51562 17 5.70722 17 7.17187L17 14.3437C17 15.8084 15.8084 17 14.3438 17L2.65625 17C1.1916 17 1.80318e-06 15.8084 1.67513e-06 14.3438ZM0.664064 7.83594C1.03082 7.83594 1.32813 7.53864 1.32813 7.17188C1.32813 6.43955 1.92392 5.84375 2.65625 5.84375L5.84375 5.84375C6.21051 5.84375 6.50781 5.54645 6.50781 5.17969C6.50781 4.81293 6.21051 4.51562 5.84375 4.51563L2.65625 4.51563C1.19159 4.51563 9.20102e-07 5.70722 1.04815e-06 7.17188C1.08021e-06 7.53864 0.297301 7.83594 0.664064 7.83594ZM2.55664 10.791C2.55664 11.1578 2.85394 11.4551 3.2207 11.4551C3.58747 11.4551 3.88477 11.1578 3.88477 10.791C3.88477 10.4243 3.58747 10.127 3.2207 10.127C2.85394 10.127 2.55664 10.4243 2.55664 10.791ZM14.4434 10.791C14.4434 10.4243 14.1461 10.127 13.7793 10.127C13.4125 10.127 13.1152 10.4243 13.1152 10.791C13.1152 11.1578 13.4125 11.4551 13.7793 11.4551C14.1461 11.4551 14.4434 11.1578 14.4434 10.791ZM6.60935 2.89618L7.83594 1.68406L7.83594 7.83594C7.83594 8.2027 8.13324 8.5 8.5 8.5C8.86676 8.5 9.16406 8.2027 9.16406 7.83594L9.16406 1.7497L10.3242 2.89618C10.5851 3.15396 11.0056 3.15144 11.2634 2.8906C11.5212 2.62972 11.5186 2.20927 11.2578 1.95148L9.8769 0.586898C9.50014 0.20838 8.99954 -1.20793e-06 8.4668 -1.16135e-06C7.93405 -1.11478e-06 7.43345 0.208381 7.05669 0.586898L5.67581 1.95148C5.41496 2.20927 5.41244 2.62972 5.67023 2.8906C5.92805 3.15147 6.34847 3.154 6.60935 2.89618ZM6.66812 8.57255C6.55689 8.50093 6.43234 8.4667 6.30923 8.46673C6.09098 8.46673 5.87722 8.57421 5.75028 8.77134C5.35527 9.38473 5.14648 10.0846 5.14648 10.7951C5.14648 12.7723 6.65089 14.381 8.5 14.381C10.3491 14.381 11.8535 12.7723 11.8535 10.7951C11.8535 10.0345 11.661 9.35279 11.2813 8.76888C11.0814 8.46142 10.6701 8.37423 10.3626 8.57414C10.0552 8.77406 9.96798 9.18538 10.1679 9.49284C10.4051 9.85771 10.5254 10.2958 10.5254 10.7951C10.5254 12.04 9.61682 13.0529 8.5 13.0529C7.38318 13.0529 6.47461 12.04 6.47461 10.7951C6.47461 10.3401 6.61025 9.88895 6.8669 9.49042C7.06546 9.18203 6.97647 8.7711 6.66812 8.57255Z" fill="white"/>
</svg>
